<svg width="500" height="390" viewBox="0 0 500 390" fill="none" xmlns="http://www.w3.org/2000/svg">
<g filter="url(#filter0_f_36_69)">
<path d="M202.146 234.077C202.138 233.308 202.129 232.527 202.129 231.725H297.993C297.993 232.583 297.981 233.42 297.969 234.244V234.249C297.943 236.047 297.918 237.779 298.022 239.506C298.193 242.342 300.148 244.186 302.673 244.198C305.28 244.21 307.377 242.154 307.436 239.271C307.524 235.061 307.535 230.85 307.418 226.646C307.347 224.091 305.956 222.441 303.343 222.071C302.192 221.913 301.017 221.848 299.849 221.848C266.641 221.842 233.428 221.842 200.221 221.842C200.035 221.842 199.849 221.841 199.663 221.839C199.066 221.834 198.469 221.828 197.878 221.878C194.219 222.189 192.646 223.851 192.61 227.527C192.569 231.244 192.569 234.967 192.61 238.684C192.646 242.013 194.595 244.21 197.396 244.192C200.098 244.18 201.971 242.16 202.112 238.919C202.18 237.33 202.163 235.735 202.146 234.077Z" fill="#FF008A"/>
<path d="M249.859 172.786C245.051 172.786 240.243 172.786 235.435 172.787C221.014 172.788 206.593 172.789 192.17 172.78C188.336 172.78 186.286 171.236 186.128 168.3C185.987 165.681 187.22 163.984 189.762 163.414C190.984 163.138 192.276 163.091 193.532 163.091C231.208 163.073 268.89 163.073 306.566 163.091C307.729 163.091 308.904 163.173 310.055 163.367C312.497 163.772 313.825 165.299 313.936 167.765C314.054 170.408 312.609 171.999 310.166 172.616C309.364 172.82 308.499 172.804 307.641 172.788H307.638C307.553 172.787 307.469 172.785 307.384 172.784C307.272 172.782 307.16 172.781 307.048 172.78L306.96 172.78C287.928 172.786 268.89 172.786 249.859 172.78V172.786Z" fill="#FF008A"/>
<path d="M158.997 208.119C157.192 200.641 150.276 194.766 142.985 194.542C139.561 194.436 136.136 194.443 132.71 194.449C130.083 194.454 127.455 194.459 124.828 194.413C120.559 194.337 117.951 191.477 119.384 188.212C120.018 186.768 121.915 184.918 123.254 184.906C125.368 184.887 127.488 184.796 129.608 184.706H129.61C136.528 184.411 143.457 184.115 150.266 186.286C160.965 189.698 169.421 200.867 169.58 212.065C169.638 215.964 167.595 217.896 163.208 217.914C155.956 217.939 148.703 217.934 141.45 217.929C138.55 217.927 135.65 217.926 132.749 217.926C132.07 217.926 131.392 217.929 130.713 217.933H130.708C129.24 217.94 127.772 217.948 126.307 217.92C122.491 217.843 120.177 215.988 120.159 213.046C120.142 210.098 122.473 208.154 126.255 208.137C133.151 208.113 140.046 208.116 146.944 208.118H147.056C150.471 208.12 153.885 208.121 157.301 208.119H158.997Z" fill="#FF008A"/>
<path d="M341.101 208.125H372.488C377.409 208.125 379.781 209.663 379.875 212.899C379.975 216.223 377.467 217.92 372.435 217.92C370.497 217.92 368.558 217.92 366.62 217.92L360.819 217.921C353.073 217.922 345.327 217.924 337.583 217.92C331.747 217.92 329.826 215.653 330.707 209.887C333.038 194.625 344.548 184.683 359.962 184.63H359.97C365.141 184.613 370.312 184.595 375.483 184.648C377.761 184.671 380.01 185.358 380.562 187.76C380.909 189.263 380.674 191.524 379.728 192.534C378.636 193.697 376.499 194.29 374.778 194.36C371.58 194.488 368.376 194.481 365.17 194.474C362.614 194.468 360.058 194.462 357.502 194.525C350.25 194.701 343.221 200.209 341.189 207.115C341.139 207.288 341.129 207.472 341.117 207.709V207.71L341.117 207.712C341.11 207.835 341.103 207.973 341.089 208.131L341.101 208.125Z" fill="#FF008A"/>
<path d="M256.824 188.576C254.633 188.585 252.442 188.594 250.252 188.594V188.606C247.83 188.606 245.408 188.602 242.986 188.599C236.629 188.589 230.274 188.58 223.921 188.635C220.868 188.659 219.018 190.549 218.977 193.262C218.936 196.099 220.885 198.054 224.056 198.06C241.414 198.095 258.773 198.113 276.131 198.001C277.423 197.995 279.267 197.279 279.86 196.292C280.652 194.977 281.181 192.657 280.523 191.536C279.707 190.144 277.587 188.776 275.99 188.723C269.605 188.522 263.214 188.549 256.824 188.576Z" fill="#FF008A"/>
<path fill-rule="evenodd" clip-rule="evenodd" d="M335.599 289.085H385.413L385.418 289.091C389.852 287.3 390.275 286.666 390.286 281.692C390.29 277.656 390.289 273.619 390.288 269.599V269.558C390.287 268.103 390.287 266.65 390.287 265.2L390.286 263.6C395.73 262.507 396.394 261.926 396.705 256.471C397.468 243.145 398.118 229.813 398.768 216.482L398.86 214.602C398.971 212.33 399.095 210.059 399.219 207.788L399.221 207.755V207.747C399.586 201.05 399.951 194.354 399.999 187.654C400.134 168.94 384.579 153.067 365.917 153.102C362.844 153.107 359.763 154.055 356.694 154.999L356.693 155L356.686 155.002C355.517 155.362 354.35 155.721 353.186 156.027L353.012 156.072C348.412 157.278 348.401 157.281 346.104 152.856C344.186 149.163 342.267 145.471 340.347 141.778C335.923 133.271 331.5 124.764 327.102 116.242C322.369 107.07 315.046 101.662 304.723 100.47C304.411 100.434 304.109 100.306 303.807 100.177C303.661 100.114 303.514 100.052 303.366 100H196.698C195.393 100.428 194.069 100.815 192.746 101.201C189.798 102.063 186.851 102.925 184.119 104.234C179.181 106.606 175.757 110.793 173.226 115.714C170.21 121.579 167.168 127.431 164.126 133.283C160.422 140.408 156.718 147.534 153.061 154.682C152.051 156.661 151.135 157.53 148.839 156.596C147.562 156.079 146.21 155.746 144.856 155.413L144.855 155.413C143.936 155.187 143.015 154.961 142.115 154.676C128.891 150.495 118.28 155.252 109.114 164.506C104.545 169.116 101.92 174.871 100.611 181.23C100.536 181.592 100.379 181.936 100.222 182.28C100.145 182.45 100.068 182.62 100 182.792V196.885C100.122 198.606 100.252 200.324 100.381 202.043L100.382 202.048L100.382 202.05C100.669 205.862 100.956 209.671 101.163 213.486C101.534 220.397 101.879 227.307 102.224 234.217L102.225 234.239C102.605 241.848 102.985 249.457 103.4 257.064C103.658 261.75 104.751 262.795 109.742 263.47V272.913C109.742 273.236 109.742 273.559 109.742 273.882L109.739 275.843C109.737 277.797 109.734 279.75 109.742 281.704C109.76 286.583 110.247 287.306 114.645 289.085H164.459C168.899 287.253 169.263 286.701 169.268 281.639C169.27 281.387 169.272 281.135 169.274 280.883V280.879C169.283 279.763 169.292 278.645 169.216 277.534C169.01 274.639 167.272 272.807 164.706 272.69C162.134 272.566 160.12 274.493 159.779 277.417C159.741 277.725 159.717 278.035 159.691 278.387C159.677 278.571 159.662 278.767 159.644 278.979H119.56V263.441H380.544V278.967H340.437C340.405 278.646 340.389 278.333 340.374 278.03C340.342 277.396 340.313 276.804 340.138 276.26C339.404 273.97 337.783 272.596 335.352 272.731C332.968 272.866 331.183 274.187 330.971 276.665C330.742 279.378 330.778 282.138 330.971 284.863C331.143 287.264 333.039 288.037 334.885 288.789C335.125 288.887 335.364 288.984 335.599 289.085ZM387.127 253.376H112.884V253.364C112.758 251.186 112.628 249.026 112.499 246.877L112.499 246.875L112.499 246.872V246.869C112.231 242.412 111.966 238.007 111.744 233.598C111.435 227.404 111.142 221.209 110.848 215.014C110.457 206.751 110.066 198.489 109.636 190.226C108.92 176.45 117.875 165.087 131.352 163.032C133.119 162.768 135.075 162.909 136.807 163.367C143.957 165.265 151.089 167.233 158.221 169.2L158.223 169.201C161.879 170.209 165.535 171.217 169.192 172.216C173.074 173.273 175.616 172.099 176.415 168.993C177.149 166.145 175.434 163.942 171.617 162.874C169.593 162.309 167.568 161.749 165.491 161.175C164.82 160.989 164.144 160.802 163.461 160.613L161.341 160.026C161.478 159.696 161.595 159.397 161.704 159.119C161.913 158.583 162.092 158.127 162.316 157.694C168.787 145.222 175.264 132.749 181.759 120.283C185.335 113.418 190.99 109.953 198.741 109.953C210.048 109.955 221.356 109.954 232.663 109.953H233.032C255.88 109.95 278.729 109.948 301.575 109.971C309.045 109.977 314.653 113.342 318.135 119.989C323.221 129.69 328.264 139.419 333.306 149.147L333.31 149.154L333.525 149.568C334.878 152.177 336.23 154.786 337.583 157.395C337.828 157.869 338.042 158.358 338.287 158.915C338.429 159.241 338.582 159.59 338.758 159.973C337.51 160.333 336.281 160.68 335.066 161.023L335.062 161.024C332.26 161.815 329.537 162.583 326.843 163.443C324.553 164.171 323.326 165.951 323.549 168.376C323.754 170.654 325.187 172.164 327.401 172.616C328.382 172.815 329.527 172.551 330.537 172.275C333.181 171.559 335.828 170.855 338.476 170.15C346.08 168.127 353.686 166.103 361.207 163.807C368.413 161.611 374.543 163.666 380.151 167.736C387.791 173.279 390.821 181.183 390.386 190.479C389.535 208.653 388.642 226.822 387.744 244.991C387.654 246.811 387.506 248.631 387.353 250.515C387.277 251.45 387.199 252.402 387.127 253.376Z" fill="#FF008A"/>
<path d="M375.891 134.033C375.06 134.04 374.229 134.047 373.398 134.047V134.053C372.545 134.053 371.691 134.046 370.837 134.039H370.835C368.863 134.023 366.889 134.007 364.919 134.076C362.106 134.176 360.285 136.032 360.221 138.639C360.156 141.405 361.965 143.407 364.936 143.466C370.391 143.572 375.853 143.566 381.308 143.478C384.279 143.431 386.158 141.475 386.158 138.768C386.158 136.073 384.238 134.153 381.29 134.059C379.494 134.003 377.693 134.018 375.891 134.033Z" fill="#FF008A"/>
<path d="M124.454 143.506H124.452L124.429 143.506H124.427C122.466 143.525 120.504 143.543 118.544 143.466C115.755 143.354 113.935 141.452 113.894 138.862C113.847 136.149 115.749 134.117 118.668 134.071C124.123 133.982 129.584 133.982 135.039 134.071C138.005 134.117 139.866 136.096 139.831 138.833C139.802 141.558 137.946 143.378 134.91 143.484C133.089 143.545 131.268 143.53 129.446 143.515C128.851 143.51 128.257 143.505 127.662 143.503C127.571 143.502 127.48 143.502 127.389 143.502C127.265 143.501 127.142 143.501 127.018 143.501V143.49C126.782 143.49 126.547 143.49 126.311 143.491C126.081 143.492 125.852 143.494 125.622 143.495C125.233 143.498 124.844 143.502 124.454 143.506Z" fill="#FF008A"/>
</g>
<g filter="url(#filter1_f_36_69)">
<path d="M202.146 234.077C202.138 233.308 202.129 232.527 202.129 231.725H297.993C297.993 232.583 297.981 233.42 297.969 234.244V234.249C297.943 236.047 297.918 237.779 298.022 239.506C298.193 242.342 300.148 244.186 302.673 244.198C305.28 244.21 307.377 242.154 307.436 239.271C307.524 235.061 307.535 230.85 307.418 226.646C307.347 224.091 305.956 222.441 303.343 222.071C302.192 221.913 301.017 221.848 299.849 221.848C266.641 221.842 233.428 221.842 200.221 221.842C200.035 221.842 199.849 221.841 199.663 221.839C199.066 221.834 198.469 221.828 197.878 221.878C194.219 222.189 192.646 223.851 192.61 227.527C192.569 231.244 192.569 234.967 192.61 238.684C192.646 242.013 194.595 244.21 197.396 244.192C200.098 244.18 201.971 242.16 202.112 238.919C202.18 237.33 202.163 235.735 202.146 234.077Z" fill="#FF008A"/>
<path d="M249.859 172.786C245.051 172.786 240.243 172.786 235.435 172.787C221.014 172.788 206.593 172.789 192.17 172.78C188.336 172.78 186.286 171.236 186.128 168.3C185.987 165.681 187.22 163.984 189.762 163.414C190.984 163.138 192.276 163.091 193.532 163.091C231.208 163.073 268.89 163.073 306.566 163.091C307.729 163.091 308.904 163.173 310.055 163.367C312.497 163.772 313.825 165.299 313.936 167.765C314.054 170.408 312.609 171.999 310.166 172.616C309.364 172.82 308.499 172.804 307.641 172.788H307.638C307.553 172.787 307.469 172.785 307.384 172.784C307.272 172.782 307.16 172.781 307.048 172.78L306.96 172.78C287.928 172.786 268.89 172.786 249.859 172.78V172.786Z" fill="#FF008A"/>
<path d="M158.997 208.119C157.192 200.641 150.276 194.766 142.985 194.542C139.561 194.436 136.136 194.443 132.71 194.449C130.083 194.454 127.455 194.459 124.828 194.413C120.559 194.337 117.951 191.477 119.384 188.212C120.018 186.768 121.915 184.918 123.254 184.906C125.368 184.887 127.488 184.796 129.608 184.706H129.61C136.528 184.411 143.457 184.115 150.266 186.286C160.965 189.698 169.421 200.867 169.58 212.065C169.638 215.964 167.595 217.896 163.208 217.914C155.956 217.939 148.703 217.934 141.45 217.929C138.55 217.927 135.65 217.926 132.749 217.926C132.07 217.926 131.392 217.929 130.713 217.933H130.708C129.24 217.94 127.772 217.948 126.307 217.92C122.491 217.843 120.177 215.988 120.159 213.046C120.142 210.098 122.473 208.154 126.255 208.137C133.151 208.113 140.046 208.116 146.944 208.118H147.056C150.471 208.12 153.885 208.121 157.301 208.119H158.997Z" fill="#FF008A"/>
<path d="M341.101 208.125H372.488C377.409 208.125 379.781 209.663 379.875 212.899C379.975 216.223 377.467 217.92 372.435 217.92C370.497 217.92 368.558 217.92 366.62 217.92L360.819 217.921C353.073 217.922 345.327 217.924 337.583 217.92C331.747 217.92 329.826 215.653 330.707 209.887C333.038 194.625 344.548 184.683 359.962 184.63H359.97C365.141 184.613 370.312 184.595 375.483 184.648C377.761 184.671 380.01 185.358 380.562 187.76C380.909 189.263 380.674 191.524 379.728 192.534C378.636 193.697 376.499 194.29 374.778 194.36C371.58 194.488 368.376 194.481 365.17 194.474C362.614 194.468 360.058 194.462 357.502 194.525C350.25 194.701 343.221 200.209 341.189 207.115C341.139 207.288 341.129 207.472 341.117 207.709V207.71L341.117 207.712C341.11 207.835 341.103 207.973 341.089 208.131L341.101 208.125Z" fill="#FF008A"/>
<path d="M256.824 188.576C254.633 188.585 252.442 188.594 250.252 188.594V188.606C247.83 188.606 245.408 188.602 242.986 188.599C236.629 188.589 230.274 188.58 223.921 188.635C220.868 188.659 219.018 190.549 218.977 193.262C218.936 196.099 220.885 198.054 224.056 198.06C241.414 198.095 258.773 198.113 276.131 198.001C277.423 197.995 279.267 197.279 279.86 196.292C280.652 194.977 281.181 192.657 280.523 191.536C279.707 190.144 277.587 188.776 275.99 188.723C269.605 188.522 263.214 188.549 256.824 188.576Z" fill="#FF008A"/>
<path fill-rule="evenodd" clip-rule="evenodd" d="M335.599 289.085H385.413L385.418 289.091C389.852 287.3 390.275 286.666 390.286 281.692C390.29 277.656 390.289 273.619 390.288 269.599V269.558C390.287 268.103 390.287 266.65 390.287 265.2L390.286 263.6C395.73 262.507 396.394 261.926 396.705 256.471C397.468 243.145 398.118 229.813 398.768 216.482L398.86 214.602C398.971 212.33 399.095 210.059 399.219 207.788L399.221 207.755V207.747C399.586 201.05 399.951 194.354 399.999 187.654C400.134 168.94 384.579 153.067 365.917 153.102C362.844 153.107 359.763 154.055 356.694 154.999L356.693 155L356.686 155.002C355.517 155.362 354.35 155.721 353.186 156.027L353.012 156.072C348.412 157.278 348.401 157.281 346.104 152.856C344.186 149.163 342.267 145.471 340.347 141.778C335.923 133.271 331.5 124.764 327.102 116.242C322.369 107.07 315.046 101.662 304.723 100.47C304.411 100.434 304.109 100.306 303.807 100.177C303.661 100.114 303.514 100.052 303.366 100H196.698C195.393 100.428 194.069 100.815 192.746 101.201C189.798 102.063 186.851 102.925 184.119 104.234C179.181 106.606 175.757 110.793 173.226 115.714C170.21 121.579 167.168 127.431 164.126 133.283C160.422 140.408 156.718 147.534 153.061 154.682C152.051 156.661 151.135 157.53 148.839 156.596C147.562 156.079 146.21 155.746 144.856 155.413L144.855 155.413C143.936 155.187 143.015 154.961 142.115 154.676C128.891 150.495 118.28 155.252 109.114 164.506C104.545 169.116 101.92 174.871 100.611 181.23C100.536 181.592 100.379 181.936 100.222 182.28C100.145 182.45 100.068 182.62 100 182.792V196.885C100.122 198.606 100.252 200.324 100.381 202.043L100.382 202.048L100.382 202.05C100.669 205.862 100.956 209.671 101.163 213.486C101.534 220.397 101.879 227.307 102.224 234.217L102.225 234.239C102.605 241.848 102.985 249.457 103.4 257.064C103.658 261.75 104.751 262.795 109.742 263.47V272.913C109.742 273.236 109.742 273.559 109.742 273.882L109.739 275.843C109.737 277.797 109.734 279.75 109.742 281.704C109.76 286.583 110.247 287.306 114.645 289.085H164.459C168.899 287.253 169.263 286.701 169.268 281.639C169.27 281.387 169.272 281.135 169.274 280.883V280.879C169.283 279.763 169.292 278.645 169.216 277.534C169.01 274.639 167.272 272.807 164.706 272.69C162.134 272.566 160.12 274.493 159.779 277.417C159.741 277.725 159.717 278.035 159.691 278.387C159.677 278.571 159.662 278.767 159.644 278.979H119.56V263.441H380.544V278.967H340.437C340.405 278.646 340.389 278.333 340.374 278.03C340.342 277.396 340.313 276.804 340.138 276.26C339.404 273.97 337.783 272.596 335.352 272.731C332.968 272.866 331.183 274.187 330.971 276.665C330.742 279.378 330.778 282.138 330.971 284.863C331.143 287.264 333.039 288.037 334.885 288.789C335.125 288.887 335.364 288.984 335.599 289.085ZM387.127 253.376H112.884V253.364C112.758 251.186 112.628 249.026 112.499 246.877L112.499 246.875L112.499 246.872V246.869C112.231 242.412 111.966 238.007 111.744 233.598C111.435 227.404 111.142 221.209 110.848 215.014C110.457 206.751 110.066 198.489 109.636 190.226C108.92 176.45 117.875 165.087 131.352 163.032C133.119 162.768 135.075 162.909 136.807 163.367C143.957 165.265 151.089 167.233 158.221 169.2L158.223 169.201C161.879 170.209 165.535 171.217 169.192 172.216C173.074 173.273 175.616 172.099 176.415 168.993C177.149 166.145 175.434 163.942 171.617 162.874C169.593 162.309 167.568 161.749 165.491 161.175C164.82 160.989 164.144 160.802 163.461 160.613L161.341 160.026C161.478 159.696 161.595 159.397 161.704 159.119C161.913 158.583 162.092 158.127 162.316 157.694C168.787 145.222 175.264 132.749 181.759 120.283C185.335 113.418 190.99 109.953 198.741 109.953C210.048 109.955 221.356 109.954 232.663 109.953H233.032C255.88 109.95 278.729 109.948 301.575 109.971C309.045 109.977 314.653 113.342 318.135 119.989C323.221 129.69 328.264 139.419 333.306 149.147L333.31 149.154L333.525 149.568C334.878 152.177 336.23 154.786 337.583 157.395C337.828 157.869 338.042 158.358 338.287 158.915C338.429 159.241 338.582 159.59 338.758 159.973C337.51 160.333 336.281 160.68 335.066 161.023L335.062 161.024C332.26 161.815 329.537 162.583 326.843 163.443C324.553 164.171 323.326 165.951 323.549 168.376C323.754 170.654 325.187 172.164 327.401 172.616C328.382 172.815 329.527 172.551 330.537 172.275C333.181 171.559 335.828 170.855 338.476 170.15C346.08 168.127 353.686 166.103 361.207 163.807C368.413 161.611 374.543 163.666 380.151 167.736C387.791 173.279 390.821 181.183 390.386 190.479C389.535 208.653 388.642 226.822 387.744 244.991C387.654 246.811 387.506 248.631 387.353 250.515C387.277 251.45 387.199 252.402 387.127 253.376Z" fill="#FF008A"/>
<path d="M375.891 134.033C375.06 134.04 374.229 134.047 373.398 134.047V134.053C372.545 134.053 371.691 134.046 370.837 134.039H370.835C368.863 134.023 366.889 134.007 364.919 134.076C362.106 134.176 360.285 136.032 360.221 138.639C360.156 141.405 361.965 143.407 364.936 143.466C370.391 143.572 375.853 143.566 381.308 143.478C384.279 143.431 386.158 141.475 386.158 138.768C386.158 136.073 384.238 134.153 381.29 134.059C379.494 134.003 377.693 134.018 375.891 134.033Z" fill="#FF008A"/>
<path d="M124.454 143.506H124.452L124.429 143.506H124.427C122.466 143.525 120.504 143.543 118.544 143.466C115.755 143.354 113.935 141.452 113.894 138.862C113.847 136.149 115.749 134.117 118.668 134.071C124.123 133.982 129.584 133.982 135.039 134.071C138.005 134.117 139.866 136.096 139.831 138.833C139.802 141.558 137.946 143.378 134.91 143.484C133.089 143.545 131.268 143.53 129.446 143.515C128.851 143.51 128.257 143.505 127.662 143.503C127.571 143.502 127.48 143.502 127.389 143.502C127.265 143.501 127.142 143.501 127.018 143.501V143.49C126.782 143.49 126.547 143.49 126.311 143.491C126.081 143.492 125.852 143.494 125.622 143.495C125.233 143.498 124.844 143.502 124.454 143.506Z" fill="#FF008A"/>
</g>
<g filter="url(#filter2_i_36_69)">
<path d="M202.146 234.077C202.138 233.308 202.129 232.527 202.129 231.725H297.993C297.993 232.583 297.981 233.42 297.969 234.244V234.249C297.943 236.047 297.918 237.779 298.022 239.506C298.193 242.342 300.148 244.186 302.673 244.198C305.28 244.21 307.377 242.154 307.436 239.271C307.524 235.061 307.535 230.85 307.418 226.646C307.347 224.091 305.956 222.441 303.343 222.071C302.192 221.913 301.017 221.848 299.849 221.848C266.641 221.842 233.428 221.842 200.221 221.842C200.035 221.842 199.849 221.841 199.663 221.839C199.066 221.834 198.469 221.828 197.878 221.878C194.219 222.189 192.646 223.851 192.61 227.527C192.569 231.244 192.569 234.967 192.61 238.684C192.646 242.013 194.595 244.21 197.396 244.192C200.098 244.18 201.971 242.16 202.112 238.919C202.18 237.33 202.163 235.735 202.146 234.077Z" fill="#F1F1F1"/>
<path d="M249.859 172.786C245.051 172.786 240.243 172.786 235.435 172.787C221.014 172.788 206.593 172.789 192.17 172.78C188.336 172.78 186.286 171.236 186.128 168.3C185.987 165.681 187.22 163.984 189.762 163.414C190.984 163.138 192.276 163.091 193.532 163.091C231.208 163.073 268.89 163.073 306.567 163.091C307.729 163.091 308.904 163.173 310.055 163.367C312.497 163.772 313.825 165.299 313.936 167.765C314.054 170.408 312.609 171.999 310.166 172.616C309.364 172.82 308.499 172.804 307.641 172.788H307.638C307.553 172.787 307.469 172.785 307.384 172.784C307.272 172.782 307.16 172.781 307.048 172.78L306.96 172.78C287.928 172.786 268.89 172.786 249.859 172.78V172.786Z" fill="#F1F1F1"/>
<path d="M158.997 208.119C157.192 200.641 150.276 194.766 142.985 194.542C139.561 194.436 136.136 194.443 132.71 194.449C130.083 194.454 127.455 194.459 124.828 194.413C120.559 194.337 117.951 191.477 119.384 188.212C120.018 186.768 121.915 184.918 123.254 184.906C125.368 184.887 127.488 184.796 129.608 184.706H129.61C136.528 184.411 143.457 184.115 150.266 186.286C160.965 189.698 169.421 200.867 169.58 212.065C169.638 215.964 167.595 217.896 163.208 217.914C155.956 217.939 148.703 217.934 141.45 217.929C138.55 217.927 135.65 217.926 132.749 217.926C132.07 217.926 131.392 217.929 130.713 217.933H130.708C129.24 217.94 127.772 217.948 126.307 217.92C122.491 217.843 120.177 215.988 120.159 213.046C120.142 210.098 122.473 208.154 126.255 208.137C133.151 208.113 140.046 208.116 146.944 208.118H147.056C150.471 208.12 153.885 208.121 157.301 208.119H158.997Z" fill="#F1F1F1"/>
<path d="M341.101 208.125H372.488C377.409 208.125 379.781 209.663 379.875 212.899C379.975 216.223 377.467 217.92 372.435 217.92C370.497 217.92 368.558 217.92 366.62 217.92L360.819 217.921C353.073 217.922 345.327 217.924 337.583 217.92C331.747 217.92 329.826 215.653 330.707 209.887C333.038 194.625 344.548 184.683 359.962 184.63H359.97C365.141 184.613 370.312 184.595 375.483 184.648C377.761 184.671 380.01 185.358 380.562 187.76C380.909 189.263 380.674 191.524 379.728 192.534C378.636 193.697 376.499 194.29 374.778 194.36C371.58 194.488 368.376 194.481 365.17 194.474C362.614 194.468 360.058 194.462 357.502 194.525C350.25 194.701 343.221 200.209 341.189 207.115C341.139 207.288 341.129 207.472 341.117 207.709V207.71L341.117 207.712C341.11 207.835 341.103 207.973 341.089 208.131L341.101 208.125Z" fill="#F1F1F1"/>
<path d="M256.824 188.576C254.633 188.585 252.442 188.594 250.252 188.594V188.606C247.83 188.606 245.408 188.602 242.986 188.599C236.629 188.589 230.274 188.58 223.921 188.635C220.868 188.659 219.018 190.549 218.977 193.262C218.936 196.099 220.885 198.054 224.056 198.06C241.414 198.095 258.773 198.113 276.131 198.001C277.423 197.995 279.267 197.279 279.86 196.292C280.652 194.977 281.181 192.657 280.523 191.536C279.707 190.144 277.587 188.776 275.99 188.723C269.605 188.522 263.214 188.549 256.824 188.576Z" fill="#F1F1F1"/>
<path fill-rule="evenodd" clip-rule="evenodd" d="M335.599 289.085H385.413L385.418 289.091C389.852 287.3 390.275 286.666 390.286 281.692C390.29 277.656 390.289 273.619 390.288 269.599V269.558C390.287 268.103 390.287 266.65 390.287 265.2L390.286 263.6C395.73 262.507 396.394 261.926 396.705 256.471C397.468 243.145 398.118 229.813 398.768 216.482L398.86 214.602C398.971 212.33 399.095 210.059 399.219 207.788L399.221 207.755V207.747C399.586 201.05 399.951 194.354 399.999 187.654C400.134 168.94 384.579 153.067 365.917 153.102C362.844 153.107 359.763 154.055 356.694 154.999L356.693 155L356.686 155.002C355.517 155.362 354.35 155.721 353.186 156.027L353.012 156.072C348.412 157.278 348.401 157.281 346.104 152.856C344.186 149.163 342.267 145.471 340.347 141.778C335.923 133.271 331.5 124.764 327.102 116.242C322.369 107.07 315.046 101.662 304.723 100.47C304.411 100.434 304.109 100.306 303.807 100.177C303.661 100.114 303.514 100.052 303.366 100H196.698C195.393 100.428 194.069 100.815 192.746 101.201C189.798 102.063 186.851 102.925 184.119 104.234C179.181 106.606 175.757 110.793 173.226 115.714C170.21 121.579 167.168 127.431 164.126 133.283C160.422 140.408 156.718 147.534 153.061 154.682C152.051 156.661 151.135 157.53 148.839 156.596C147.562 156.079 146.21 155.746 144.856 155.413L144.855 155.413C143.936 155.187 143.015 154.961 142.115 154.676C128.891 150.495 118.28 155.252 109.114 164.506C104.545 169.116 101.92 174.871 100.611 181.23C100.536 181.592 100.379 181.936 100.222 182.28C100.145 182.45 100.068 182.62 100 182.792V196.885C100.122 198.606 100.252 200.324 100.381 202.043L100.382 202.048L100.382 202.05C100.669 205.862 100.956 209.671 101.163 213.486C101.534 220.397 101.879 227.307 102.224 234.217L102.225 234.239C102.605 241.848 102.985 249.457 103.4 257.064C103.658 261.75 104.751 262.795 109.742 263.47V272.913C109.742 273.236 109.742 273.559 109.742 273.882L109.739 275.843C109.737 277.797 109.734 279.75 109.742 281.704C109.76 286.583 110.247 287.306 114.645 289.085H164.459C168.899 287.253 169.263 286.701 169.268 281.639C169.27 281.387 169.272 281.135 169.274 280.883V280.879C169.283 279.763 169.292 278.645 169.216 277.534C169.01 274.639 167.272 272.807 164.706 272.69C162.134 272.566 160.12 274.493 159.779 277.417C159.741 277.725 159.717 278.035 159.691 278.387C159.677 278.571 159.662 278.767 159.644 278.979H119.56V263.441H380.545V278.967H340.437C340.405 278.646 340.389 278.333 340.374 278.03C340.342 277.396 340.313 276.804 340.138 276.26C339.404 273.97 337.783 272.596 335.352 272.731C332.968 272.866 331.183 274.187 330.971 276.665C330.742 279.378 330.778 282.138 330.971 284.863C331.143 287.264 333.039 288.037 334.885 288.789C335.125 288.887 335.364 288.984 335.599 289.085ZM387.127 253.376H112.884V253.364C112.758 251.186 112.628 249.026 112.499 246.877L112.499 246.875L112.499 246.872V246.869C112.231 242.412 111.966 238.007 111.744 233.598C111.435 227.404 111.142 221.209 110.848 215.014C110.457 206.751 110.066 198.489 109.636 190.226C108.92 176.45 117.875 165.087 131.352 163.032C133.119 162.768 135.075 162.909 136.807 163.367C143.957 165.265 151.089 167.233 158.221 169.2L158.223 169.201C161.879 170.209 165.535 171.217 169.192 172.216C173.074 173.273 175.616 172.099 176.415 168.993C177.149 166.145 175.434 163.942 171.617 162.874C169.593 162.309 167.568 161.749 165.491 161.175C164.82 160.989 164.144 160.802 163.461 160.613L161.341 160.026C161.478 159.696 161.595 159.397 161.704 159.119C161.913 158.583 162.092 158.127 162.316 157.694C168.787 145.222 175.264 132.749 181.759 120.283C185.335 113.418 190.99 109.953 198.741 109.953C210.048 109.955 221.356 109.954 232.663 109.953H233.032C255.88 109.95 278.729 109.948 301.575 109.971C309.045 109.977 314.653 113.342 318.135 119.989C323.221 129.69 328.264 139.419 333.306 149.147L333.31 149.154L333.525 149.568C334.878 152.177 336.23 154.786 337.583 157.395C337.828 157.869 338.042 158.358 338.287 158.915C338.429 159.241 338.582 159.59 338.758 159.973C337.51 160.333 336.281 160.68 335.066 161.023L335.062 161.024C332.26 161.815 329.537 162.583 326.843 163.443C324.553 164.171 323.326 165.951 323.549 168.376C323.754 170.654 325.187 172.164 327.401 172.616C328.382 172.815 329.527 172.551 330.537 172.275C333.181 171.559 335.828 170.855 338.476 170.15C346.08 168.127 353.686 166.103 361.207 163.807C368.413 161.611 374.543 163.666 380.151 167.736C387.791 173.279 390.821 181.183 390.386 190.479C389.535 208.653 388.642 226.822 387.744 244.991C387.654 246.811 387.506 248.631 387.353 250.515C387.277 251.45 387.199 252.402 387.127 253.376Z" fill="#F1F1F1"/>
<path d="M375.891 134.033C375.06 134.04 374.229 134.047 373.398 134.047V134.053C372.545 134.053 371.691 134.046 370.837 134.039H370.835C368.863 134.023 366.889 134.007 364.919 134.076C362.106 134.176 360.285 136.032 360.221 138.639C360.156 141.405 361.965 143.407 364.936 143.466C370.391 143.572 375.853 143.566 381.308 143.478C384.279 143.431 386.158 141.475 386.158 138.768C386.158 136.073 384.238 134.153 381.29 134.059C379.494 134.003 377.693 134.018 375.891 134.033Z" fill="#F1F1F1"/>
<path d="M124.454 143.506H124.452L124.429 143.506H124.427C122.466 143.525 120.504 143.543 118.544 143.466C115.755 143.354 113.935 141.452 113.894 138.862C113.847 136.149 115.749 134.117 118.668 134.071C124.123 133.982 129.584 133.982 135.039 134.071C138.005 134.117 139.866 136.096 139.831 138.833C139.802 141.558 137.946 143.378 134.91 143.484C133.089 143.545 131.268 143.53 129.446 143.515C128.851 143.51 128.257 143.505 127.662 143.503C127.571 143.502 127.48 143.502 127.389 143.502C127.265 143.501 127.142 143.501 127.018 143.501V143.49C126.782 143.49 126.547 143.49 126.311 143.491C126.081 143.492 125.852 143.494 125.622 143.495C125.233 143.498 124.844 143.502 124.454 143.506Z" fill="#F1F1F1"/>
</g>
<defs>
<filter id="filter0_f_36_69" x="0" y="0" width="500" height="389.091" filterUnits="userSpaceOnUse" color-interpolation-filters="sRGB">
<feFlood flood-opacity="0" result="BackgroundImageFix"/>
<feBlend mode="normal" in="SourceGraphic" in2="BackgroundImageFix" result="shape"/>
<feGaussianBlur stdDeviation="50" result="effect1_foregroundBlur_36_69"/>
</filter>
<filter id="filter1_f_36_69" x="80" y="80" width="340" height="229.091" filterUnits="userSpaceOnUse" color-interpolation-filters="sRGB">
<feFlood flood-opacity="0" result="BackgroundImageFix"/>
<feBlend mode="normal" in="SourceGraphic" in2="BackgroundImageFix" result="shape"/>
<feGaussianBlur stdDeviation="10" result="effect1_foregroundBlur_36_69"/>
</filter>
<filter id="filter2_i_36_69" x="100" y="100" width="300" height="189.091" filterUnits="userSpaceOnUse" color-interpolation-filters="sRGB">
<feFlood flood-opacity="0" result="BackgroundImageFix"/>
<feBlend mode="normal" in="SourceGraphic" in2="BackgroundImageFix" result="shape"/>
<feColorMatrix in="SourceAlpha" type="matrix" values="0 0 0 0 0 0 0 0 0 0 0 0 0 0 0 0 0 0 127 0" result="hardAlpha"/>
<feOffset/>
<feGaussianBlur stdDeviation="15"/>
<feComposite in2="hardAlpha" operator="arithmetic" k2="-1" k3="1"/>
<feColorMatrix type="matrix" values="0 0 0 0 1 0 0 0 0 0 0 0 0 0 0.541176 0 0 0 1 0"/>
<feBlend mode="normal" in2="shape" result="effect1_innerShadow_36_69"/>
</filter>
</defs>
</svg>
