<svg width="208" height="21" viewBox="0 0 208 21" fill="none" xmlns="http://www.w3.org/2000/svg">
<path d="M1.28535 18.8136V2.15553H11.126V2.46401H1.59383V11.2866H8.62725V11.5951H1.59383V18.8136H1.28535Z" fill="#F1F1F1"/>
<path d="M35.2544 18.8136H25.4446V18.5051H30.2261V2.46401H25.4446V2.15553H35.2544V2.46401H30.5346V18.5051H35.2544V18.8136Z" fill="#F1F1F1"/>
<path d="M51.3409 17.4255V18.8136H51.0324V17.4255C51.0324 16.973 51.0427 16.5514 51.0632 16.1607C51.1044 15.7494 51.2483 15.3792 51.4951 15.0501L55.1969 9.991L51.4951 4.99357C51.2689 4.66452 51.1352 4.30463 51.0941 3.91388C51.0529 3.50257 51.0324 3.07069 51.0324 2.61825V2.15553H51.3409V2.61825C51.3409 3.05013 51.3614 3.46144 51.4026 3.85218C51.4437 4.24293 51.5671 4.58226 51.7727 4.87018L55.4745 9.86761H59.1455L62.7239 4.87018C62.9295 4.58226 63.0529 4.24293 63.0941 3.85218C63.1352 3.46144 63.1558 3.05013 63.1558 2.61825V2.15553H63.4642V2.61825C63.4642 3.07069 63.4437 3.50257 63.4026 3.91388C63.3614 4.30463 63.2277 4.66452 63.0015 4.99357L59.3614 10.0527L63.0015 15.0501C63.2277 15.3792 63.3614 15.7494 63.4026 16.1607C63.4437 16.5514 63.4642 16.973 63.4642 17.4255V18.8136H63.1558V17.4255C63.1558 16.9936 63.1352 16.5823 63.0941 16.1915C63.0529 15.8008 62.9295 15.4614 62.7239 15.1735L59.1146 10.1761H55.4128L51.7727 15.1735C51.5671 15.4409 51.4437 15.7802 51.4026 16.1915C51.3614 16.5823 51.3409 16.9936 51.3409 17.4255Z" fill="#F1F1F1"/>
<path d="M89.7256 2.15553V2.46401H82.8772C82.0135 2.46401 81.3245 2.70051 80.8104 3.17352C80.2963 3.64653 80.0392 4.24293 80.0392 4.96272V7.49229C80.0392 8.21208 80.1832 8.71594 80.4711 9.00386C80.759 9.29177 81.1395 9.47686 81.6125 9.55913L88.1215 10.8856C88.7384 11.009 89.2423 11.2763 89.633 11.6877C90.0443 12.099 90.25 12.8393 90.25 13.9087V15.6979C90.25 16.6028 89.9415 17.3535 89.3245 17.9499C88.7076 18.5257 87.8747 18.8136 86.8258 18.8136H79.1446V18.5051H86.8258C87.7718 18.5051 88.5225 18.2481 89.0778 17.7339C89.6536 17.1992 89.9415 16.5206 89.9415 15.6979V13.9087C89.9415 12.9422 89.7667 12.2841 89.4171 11.9344C89.088 11.5643 88.6356 11.3175 88.0598 11.1941L81.5508 9.86761C81.0161 9.76478 80.5739 9.55913 80.2243 9.25064C79.8952 8.92159 79.7307 8.33548 79.7307 7.49229V4.96272C79.7307 4.1401 80.0186 3.47172 80.5945 2.95758C81.1703 2.42288 81.9312 2.15553 82.8772 2.15553H89.7256Z" fill="#F1F1F1"/>
<path d="M118.612 15.0501C118.612 16.2841 118.169 17.2918 117.285 18.0733C116.401 18.8342 114.756 19.2147 112.349 19.2147C109.943 19.2147 108.308 18.8342 107.445 18.0733C106.581 17.2918 106.149 16.2841 106.149 15.0501V5.94987C106.149 4.71594 106.581 3.71851 107.445 2.95758C108.308 2.17609 109.943 1.78535 112.349 1.78535C114.756 1.78535 116.401 2.17609 117.285 2.95758C118.169 3.71851 118.612 4.71594 118.612 5.94987V15.0501ZM106.457 15.0501C106.457 16.2018 106.869 17.1375 107.691 17.8573C108.514 18.5566 110.067 18.9062 112.349 18.9062C114.632 18.9062 116.195 18.5566 117.038 17.8573C117.882 17.1375 118.303 16.2018 118.303 15.0501V5.94987C118.303 4.7982 117.882 3.87275 117.038 3.17352C116.195 2.45373 114.632 2.09383 112.349 2.09383C110.067 2.09383 108.514 2.45373 107.691 3.17352C106.869 3.87275 106.457 4.7982 106.457 5.94987V15.0501Z" fill="#F1F1F1"/>
<path d="M135.31 2.15553H135.618V15.0193C135.618 16.171 136.02 17.1067 136.822 17.8265C137.644 18.5257 139.197 18.8753 141.48 18.8753C143.762 18.8753 145.315 18.5257 146.138 17.8265C146.96 17.1067 147.372 16.171 147.372 15.0193V2.15553H147.68V15.0193C147.68 16.2532 147.248 17.2609 146.385 18.0424C145.521 18.8033 143.886 19.1838 141.48 19.1838C139.073 19.1838 137.439 18.8033 136.575 18.0424C135.732 17.2609 135.31 16.2532 135.31 15.0193V2.15553Z" fill="#F1F1F1"/>
<path d="M165.328 2.40231L176.681 15.1735V2.15553H176.989V18.8136H176.681V15.6362L165.02 2.55656C164.999 2.53599 164.968 2.51542 164.927 2.49486C164.907 2.47429 164.886 2.46401 164.866 2.46401C164.845 2.46401 164.824 2.47429 164.804 2.49486C164.804 2.51542 164.804 2.53599 164.804 2.55656V18.8136H164.495V2.49486C164.495 2.37147 164.537 2.27892 164.619 2.21722C164.701 2.15553 164.783 2.12468 164.866 2.12468C164.948 2.12468 165.02 2.14524 165.082 2.18638C165.143 2.22751 165.225 2.29948 165.328 2.40231Z" fill="#F1F1F1"/>
<path d="M194.015 18.8136V2.15553H201.48C202.529 2.15553 203.372 2.26864 204.01 2.49486C204.668 2.72108 205.172 3.02956 205.522 3.42031C205.871 3.79049 206.108 4.24293 206.231 4.77764C206.354 5.29177 206.416 5.84704 206.416 6.44344V14.6183C206.416 15.2147 206.354 15.7699 206.231 16.2841C206.128 16.7982 205.902 17.2404 205.552 17.6105C205.203 17.9807 204.699 18.2789 204.041 18.5051C203.383 18.7108 202.529 18.8136 201.48 18.8136H194.015ZM201.48 2.46401H194.324V18.5051H201.48C202.468 18.5051 203.259 18.4126 203.856 18.2275C204.473 18.0219 204.946 17.7545 205.275 17.4255C205.604 17.0758 205.82 16.6645 205.923 16.1915C206.046 15.6979 206.108 15.1735 206.108 14.6183V6.44344C206.108 5.88818 206.046 5.36375 205.923 4.87018C205.799 4.37661 205.573 3.95501 205.244 3.6054C204.915 3.25578 204.442 2.97815 203.825 2.77249C203.228 2.56684 202.447 2.46401 201.48 2.46401Z" fill="#F1F1F1"/>
<path fill-rule="evenodd" clip-rule="evenodd" d="M0 20.099V0.870179H12.4113V3.74936H2.87918V10.0013H9.9126V12.8805H2.87918V20.099H0ZM8.62725 11.5951V11.2866H1.59383V2.46401H11.126V2.15553H1.28535V18.8136H1.59383V11.5951H8.62725ZM36.5398 20.099H24.1593V17.2198H28.9408V3.74936H24.1593V0.870179H36.5398V3.74936H31.82V17.2198H36.5398V20.099ZM35.2544 2.46401V2.15553H25.4446V2.46401H30.2261V18.5051H25.4446V18.8136H35.2544V18.5051H30.5346V2.46401H35.2544ZM52.6262 20.099H49.747V17.4255C49.747 16.9539 49.7577 16.5095 49.7796 16.0931L49.7812 16.0629L49.7843 16.0328C49.8483 15.3922 50.0766 14.8017 50.4618 14.2857L53.6008 9.99568L50.4488 5.74044L50.4359 5.72176C50.0904 5.21919 49.8797 4.65582 49.8158 4.04844L49.8151 4.04178C49.7693 3.58421 49.747 3.10946 49.747 2.61825V0.870179H52.6262V2.61825C52.6262 3.00954 52.6448 3.37571 52.6808 3.71763C52.7008 3.90758 52.7532 4.02898 52.8139 4.11636L56.122 8.58226H58.485L61.678 4.12308C61.7407 4.03522 61.7953 3.91249 61.8158 3.71763C61.8518 3.37572 61.8704 3.00955 61.8704 2.61825V0.870179H64.7496V2.61825C64.7496 3.10945 64.7273 3.58421 64.6815 4.04178L64.6809 4.04844C64.6169 4.65582 64.4062 5.21919 64.0607 5.72176L64.0529 5.7331L60.9482 10.0481L64.0508 14.3075L64.0607 14.3219C64.4132 14.8347 64.6187 15.4114 64.6811 16.0286C64.7274 16.4694 64.7496 16.9356 64.7496 17.4255V20.099H61.8704V17.4255C61.8704 17.0342 61.8518 16.668 61.8158 16.3261C61.7954 16.1328 61.7416 16.0105 61.6795 15.9227C61.679 15.922 61.6785 15.9213 61.678 15.9206L58.4574 11.4614H56.0668L52.8018 15.9439L52.7915 15.9572C52.7619 15.9957 52.7042 16.0928 52.6815 16.3194L52.6809 16.3261C52.6448 16.668 52.6262 17.0342 52.6262 17.4255V20.099ZM63.1558 18.8136H63.4642V17.4255C63.4642 16.973 63.4437 16.5514 63.4026 16.1607C63.4025 16.1601 63.4024 16.1596 63.4024 16.1591C63.3611 15.7484 63.2274 15.3787 63.0015 15.0501L62.9656 15.0008L62.9647 14.9996L59.3614 10.0527L63.0015 4.99357C63.2277 4.66452 63.3614 4.30463 63.4026 3.91388C63.4035 3.90425 63.4045 3.89461 63.4054 3.88496C63.4196 3.73949 63.4312 3.59146 63.4402 3.44087C63.4563 3.17467 63.4642 2.90046 63.4642 2.61825V2.15553H63.1558V2.61825C63.1558 3.05013 63.1352 3.46144 63.0941 3.85218C63.0931 3.86185 63.092 3.87147 63.0909 3.88107C63.0908 3.88161 63.0907 3.88215 63.0907 3.88269C63.0491 4.23793 62.9386 4.55009 62.7591 4.81916C62.7579 4.82093 62.7567 4.8227 62.7556 4.82447C62.7452 4.83985 62.7347 4.85508 62.7239 4.87018L59.1455 9.86761H55.4745L51.7727 4.87018C51.7619 4.85508 51.7514 4.83985 51.7411 4.82447C51.7391 4.82155 51.7372 4.81863 51.7352 4.81571C51.5571 4.54742 51.4474 4.23642 51.4059 3.88269C51.4059 3.88215 51.4058 3.88161 51.4058 3.88107C51.4046 3.87147 51.4036 3.86184 51.4026 3.85218C51.3614 3.46144 51.3409 3.05013 51.3409 2.61825V2.15553H51.0324V2.61825C51.0324 2.90046 51.0404 3.17467 51.0564 3.44087C51.0654 3.59146 51.077 3.73949 51.0912 3.88496C51.0922 3.89461 51.0931 3.90425 51.0941 3.91388C51.1352 4.30463 51.2689 4.66452 51.4951 4.99357L55.1969 9.991L51.4951 15.0501C51.2493 15.3779 51.1055 15.7465 51.0637 16.1558C51.0636 16.1564 51.0636 16.157 51.0635 16.1576C51.0634 16.1586 51.0633 16.1596 51.0632 16.1607C51.0427 16.5514 51.0324 16.973 51.0324 17.4255V18.8136H51.3409V17.4255C51.3409 16.9947 51.3613 16.5844 51.4022 16.1946C51.4023 16.1936 51.4024 16.1925 51.4026 16.1915C51.403 16.1872 51.4034 16.1829 51.4039 16.1786C51.4434 15.8005 51.553 15.4837 51.7325 15.2282C51.7332 15.2272 51.7339 15.2263 51.7345 15.2253C51.7469 15.2078 51.7597 15.1905 51.7727 15.1735L55.4128 10.1761H59.1146L62.7239 15.1735C62.7347 15.1886 62.7452 15.2039 62.7556 15.2192C62.7571 15.2215 62.7586 15.2237 62.7601 15.226C62.9441 15.5024 63.0554 15.8243 63.0941 16.1915C63.0941 16.1921 63.0942 16.1926 63.0942 16.1931C63.1353 16.5834 63.1558 16.9942 63.1558 17.4255V18.8136ZM91.0109 0.870179V3.74936H82.8772C82.2561 3.74936 81.9047 3.9133 81.6807 4.11945C81.44 4.34083 81.3246 4.59006 81.3246 4.96272V7.49229C81.3246 7.7739 81.3535 7.95361 81.3831 8.05692C81.3913 8.08578 81.3986 8.10522 81.4036 8.11712C81.4764 8.18107 81.5999 8.25231 81.8327 8.29279L81.851 8.29596L88.3735 9.62522C88.3744 9.62538 88.3752 9.62554 88.376 9.6257C89.2171 9.79437 89.9634 10.1741 90.5542 10.7911C91.3323 11.5794 91.5353 12.7629 91.5353 13.9087V15.6979C91.5353 16.9301 91.1003 18.0211 90.2179 18.874L90.2098 18.8818L90.2016 18.8895C89.2923 19.7382 88.1175 20.099 86.8258 20.099H77.8593V17.2198H86.8258C87.5315 17.2198 87.9411 17.0341 88.2033 16.7919C88.5036 16.513 88.6562 16.1819 88.6562 15.6979V13.9087C88.6562 13.4943 88.6178 13.2071 88.5681 13.0202C88.536 12.8991 88.5062 12.8463 88.498 12.8332L88.4815 12.8166L88.4564 12.7884C88.3421 12.6598 88.1528 12.5295 87.796 12.4521C87.7942 12.4517 87.7923 12.4513 87.7904 12.4509L81.308 11.1298C81.3055 11.1293 81.303 11.1289 81.3005 11.1284C80.5814 10.9889 79.9209 10.6971 79.3739 10.2144L79.3438 10.1879L79.3154 10.1595C78.6119 9.45605 78.4454 8.42437 78.4454 7.49229V4.96272C78.4454 3.80524 78.8668 2.78164 79.7291 2.00711C80.588 1.21436 81.681 0.870179 82.8772 0.870179H91.0109ZM89.7256 2.15553H82.8772C81.9363 2.15553 81.1785 2.42 80.6038 2.94895C80.6007 2.95182 80.5976 2.9547 80.5945 2.95758C80.0186 3.47172 79.7307 4.1401 79.7307 4.96272V7.49229C79.7307 8.33548 79.8952 8.92159 80.2243 9.25064C80.5737 9.55891 81.0154 9.76449 81.5496 9.86739C81.55 9.86746 81.5504 9.86754 81.5508 9.86761L88.0598 11.1941C88.6239 11.315 89.0696 11.5543 89.3969 11.912C89.3987 11.9141 89.4006 11.9161 89.4025 11.9182C89.4074 11.9236 89.4123 11.929 89.4171 11.9344C89.7667 12.2841 89.9415 12.9422 89.9415 13.9087V15.6979C89.9415 16.509 89.6616 17.1801 89.1019 17.7113C89.1005 17.7126 89.0991 17.7139 89.0977 17.7152C89.0911 17.7215 89.0845 17.7277 89.0778 17.7339C88.5225 18.2481 87.7718 18.5051 86.8258 18.5051H79.1446V18.8136H86.8258C87.8604 18.8136 88.6849 18.5335 89.2993 17.9732C89.2994 17.9731 89.2992 17.9733 89.2993 17.9732C89.3076 17.9656 89.3163 17.9576 89.3245 17.9499C89.9415 17.3535 90.25 16.6028 90.25 15.6979V13.9087C90.25 12.8644 90.0539 12.1338 89.6616 11.7171C89.6572 11.7124 89.6528 11.7078 89.6483 11.7032C89.6433 11.698 89.6382 11.6928 89.633 11.6877C89.2432 11.2773 88.7407 11.0102 88.1257 10.8865C88.1247 10.8862 88.1236 10.886 88.1226 10.8858C88.1222 10.8858 88.1218 10.8857 88.1215 10.8856L81.6125 9.55913C81.6117 9.55899 81.6109 9.55886 81.6102 9.55872C81.1382 9.47626 80.7585 9.29131 80.4711 9.00386C80.4659 8.99872 80.4609 8.99352 80.4558 8.98825C80.1781 8.6979 80.0392 8.19925 80.0392 7.49229V4.96272C80.0392 4.24887 80.292 3.65637 80.7977 3.18525C80.7992 3.18389 80.8007 3.18254 80.8021 3.18119C80.8049 3.17863 80.8076 3.17607 80.8104 3.17352C81.3245 2.70051 82.0135 2.46401 82.8772 2.46401H89.7256V2.15553ZM118.13 19.042L118.124 19.0476C116.86 20.1351 114.79 20.5 112.349 20.5C111.087 20.5 109.972 20.4009 109.027 20.1812C108.091 19.9633 107.243 19.6084 106.595 19.0377L106.589 19.0321L106.582 19.0264C105.432 17.9854 104.864 16.6229 104.864 15.0501V5.94987C104.864 4.3795 105.43 3.02187 106.589 1.99838C107.839 0.872554 109.915 0.5 112.349 0.5C114.79 0.5 116.864 0.874806 118.13 1.98863C119.312 3.00874 119.897 4.36893 119.897 5.94987V15.0501C119.897 16.6334 119.311 17.9986 118.136 19.0364L118.13 19.042ZM107.477 2.92866C107.466 2.93824 107.455 2.94788 107.445 2.95758C106.581 3.71851 106.149 4.71594 106.149 5.94987V15.0501C106.149 16.2841 106.581 17.2918 107.445 18.0733C107.455 18.0828 107.466 18.0923 107.477 18.1018C107.479 18.1028 107.48 18.1038 107.481 18.1048C108.354 18.8447 109.977 19.2147 112.349 19.2147C114.72 19.2147 116.352 18.8454 117.245 18.1069C117.247 18.1059 117.248 18.1049 117.249 18.1039C117.261 18.0938 117.273 18.0836 117.285 18.0733C118.169 17.2918 118.612 16.2841 118.612 15.0501V5.94987C118.612 4.71594 118.169 3.71851 117.285 2.95758C117.273 2.94714 117.261 2.93676 117.249 2.92645C117.248 2.92545 117.247 2.92445 117.246 2.92345C116.352 2.16471 114.72 1.78535 112.349 1.78535C109.976 1.78535 108.353 2.16543 107.481 2.92559C107.479 2.92661 107.478 2.92763 107.477 2.92866ZM107.691 3.17352C107.682 3.18177 107.672 3.19005 107.662 3.19836C107.661 3.1993 107.66 3.20024 107.659 3.20118C106.858 3.89709 106.457 4.81332 106.457 5.94987V15.0501C106.457 16.1869 106.858 17.1132 107.66 17.8292C107.661 17.8302 107.662 17.8311 107.663 17.8321C107.672 17.8405 107.682 17.8489 107.691 17.8573C108.514 18.5566 110.067 18.9062 112.349 18.9062C114.632 18.9062 116.195 18.5566 117.038 17.8573C117.049 17.8482 117.06 17.8391 117.07 17.8299C117.071 17.829 117.072 17.8281 117.073 17.8271C117.893 17.1114 118.303 16.1858 118.303 15.0501V5.94987C118.303 4.81444 117.893 3.89889 117.074 3.20323C117.073 3.20231 117.072 3.20139 117.071 3.20046C117.06 3.19145 117.049 3.18247 117.038 3.17352C116.195 2.45373 114.632 2.09383 112.349 2.09383C110.067 2.09383 108.514 2.45373 107.691 3.17352ZM116.211 16.8732C116.751 16.4095 117.018 15.8387 117.018 15.0501V5.94987C117.018 5.15819 116.75 4.60392 116.218 4.16293L116.211 4.15707L116.204 4.15111C115.739 3.75425 114.598 3.37918 112.349 3.37918C111.268 3.37918 110.413 3.46523 109.763 3.6159C109.105 3.76845 108.734 3.96942 108.538 4.14084L108.531 4.14691L108.524 4.15288C108.01 4.58993 107.743 5.14664 107.743 5.94987V15.0501C107.743 15.8499 108.008 16.4232 108.53 16.8833C108.727 17.0484 109.1 17.2424 109.755 17.39C110.408 17.5371 111.266 17.6208 112.349 17.6208C114.592 17.6208 115.74 17.2585 116.211 16.8732ZM134.025 0.870179H136.904V15.0193C136.904 15.8266 137.165 16.4014 137.666 16.8571C137.864 17.0211 138.236 17.213 138.885 17.3592C139.539 17.5063 140.396 17.59 141.48 17.59C142.563 17.59 143.421 17.5063 144.074 17.3592C144.729 17.2116 145.102 17.0175 145.299 16.8525C145.821 16.3924 146.086 15.819 146.086 15.0193V0.870179H148.966V15.0193C148.966 16.5921 148.398 17.9545 147.247 18.9955L147.241 19.0013L147.234 19.0069C146.586 19.5775 145.738 19.9325 144.802 20.1504C143.858 20.3701 142.742 20.4692 141.48 20.4692C140.217 20.4692 139.102 20.3701 138.157 20.1504C137.221 19.9325 136.373 19.5775 135.725 19.0069L135.713 18.9962L135.701 18.9851C134.575 17.9411 134.025 16.5817 134.025 15.0193V0.870179ZM135.618 2.15553H135.31V15.0193C135.31 16.2532 135.732 17.2609 136.575 18.0424C136.585 18.0511 136.595 18.0597 136.605 18.0683C136.607 18.0701 136.609 18.072 136.611 18.0739C137.484 18.8138 139.107 19.1838 141.48 19.1838C143.852 19.1838 145.475 18.8138 146.348 18.0739C146.349 18.0729 146.35 18.0719 146.352 18.0709C146.363 18.0615 146.374 18.052 146.385 18.0424C147.248 17.2609 147.68 16.2532 147.68 15.0193V2.15553H147.372V15.0193C147.372 16.156 146.971 17.0824 146.17 17.7984C146.168 17.7993 146.167 17.8003 146.166 17.8012C146.157 17.8097 146.147 17.8181 146.138 17.8265C145.315 18.5257 143.762 18.8753 141.48 18.8753C139.197 18.8753 137.644 18.5257 136.822 17.8265C136.813 17.8189 136.805 17.8112 136.796 17.8035C136.794 17.8017 136.792 17.7998 136.79 17.798C136.009 17.082 135.618 16.1558 135.618 15.0193V2.15553ZM166.237 1.49343L166.264 1.52014L175.395 11.7928V0.870179H178.274V20.099H175.395V16.126L166.089 5.68763V20.099H163.21V2.49486C163.21 2.05774 163.375 1.54317 163.848 1.18895C164.096 1.00273 164.442 0.839331 164.866 0.839331C165.173 0.839331 165.499 0.919823 165.795 1.11691C165.965 1.23069 166.12 1.37621 166.237 1.49343ZM165.082 2.18638C165.02 2.14524 164.948 2.12468 164.866 2.12468C164.783 2.12468 164.701 2.15553 164.619 2.21722C164.601 2.23065 164.585 2.24554 164.571 2.2619C164.521 2.32067 164.495 2.39832 164.495 2.49486V18.8136H164.804V2.49486C164.809 2.49023 164.813 2.48612 164.818 2.48253C164.834 2.47018 164.85 2.46401 164.866 2.46401C164.875 2.46401 164.884 2.46597 164.893 2.46989C164.904 2.47495 164.916 2.48327 164.927 2.49486M165.093 2.6381L176.681 15.6362V18.8136H176.989V2.15553H176.681V15.1735L165.328 2.40231C165.306 2.37978 165.284 2.35873 165.264 2.33916C165.259 2.3348 165.255 2.33051 165.25 2.3263C165.221 2.29887 165.194 2.27456 165.169 2.25336C165.136 2.22574 165.107 2.20341 165.082 2.18638M165.02 2.55656L165.093 2.6381ZM192.73 20.099V0.870179H201.48C202.602 0.870179 203.605 0.988503 204.434 1.28147C205.226 1.55445 205.934 1.95935 206.467 2.54985C206.979 3.09561 207.313 3.75229 207.483 4.48468C207.631 5.10656 207.701 5.76123 207.701 6.44344V14.6183C207.701 15.2947 207.632 15.944 207.486 16.5612C207.335 17.2943 207.001 17.9483 206.487 18.4931C205.952 19.0595 205.245 19.4504 204.459 19.7207L204.442 19.7266L204.424 19.732C203.595 19.991 202.599 20.099 201.48 20.099H192.73ZM203.927 2.46641C203.3 2.25915 202.484 2.15553 201.48 2.15553H194.015V18.8136H201.48C202.482 18.8136 203.305 18.7199 203.95 18.5324C203.952 18.5318 203.955 18.5312 203.957 18.5306C203.985 18.5223 204.013 18.5138 204.041 18.5051C204.671 18.2886 205.159 18.006 205.507 17.6575C205.509 17.6552 205.511 17.6528 205.514 17.6505C205.527 17.6372 205.54 17.6239 205.552 17.6105C205.902 17.2404 206.128 16.7982 206.231 16.2841C206.232 16.2792 206.233 16.2744 206.235 16.2695C206.235 16.2663 206.236 16.2631 206.237 16.2598C206.356 15.7525 206.416 15.2053 206.416 14.6183V6.44344C206.416 5.85267 206.356 5.30225 206.235 4.79219C206.233 4.78733 206.232 4.78248 206.231 4.77764C206.108 4.24293 205.871 3.79049 205.522 3.42031C205.509 3.40656 205.497 3.39291 205.484 3.37936C205.136 3.00795 204.645 2.71312 204.01 2.49486C203.984 2.48553 203.957 2.4764 203.93 2.46745C203.929 2.46711 203.928 2.46676 203.927 2.46641ZM205.923 16.1915C206.046 15.6979 206.108 15.1735 206.108 14.6183V6.44344C206.108 5.88818 206.046 5.36375 205.923 4.87018C205.921 4.86435 205.92 4.85854 205.918 4.85273C205.918 4.85182 205.918 4.85091 205.917 4.85C205.798 4.38427 205.586 3.98314 205.282 3.64662C205.28 3.64442 205.278 3.64223 205.276 3.64004C205.265 3.62842 205.255 3.61687 205.244 3.6054C204.929 3.27109 204.483 3.0026 203.905 2.79992C203.904 2.79957 203.903 2.79922 203.902 2.79887C203.877 2.78995 203.851 2.78116 203.825 2.77249C203.228 2.56684 202.447 2.46401 201.48 2.46401H194.324V18.5051H201.48C202.468 18.5051 203.259 18.4126 203.856 18.2275C203.883 18.2185 203.909 18.2094 203.936 18.2001C203.939 18.1991 203.942 18.1981 203.945 18.1971C204.518 17.9957 204.962 17.7385 205.275 17.4255C205.288 17.4118 205.3 17.3981 205.313 17.3842C205.614 17.051 205.815 16.6633 205.916 16.221C205.917 16.2171 205.918 16.2131 205.919 16.2091C205.92 16.2032 205.921 16.1974 205.923 16.1915ZM195.609 3.74936H201.48C202.372 3.74936 202.996 3.8463 203.406 3.98763L203.412 3.98979L203.418 3.99188C203.902 4.15307 204.167 4.33676 204.308 4.48633C204.477 4.66631 204.602 4.88837 204.676 5.18192C204.771 5.56475 204.822 5.9838 204.822 6.44344V14.6183C204.822 15.0779 204.771 15.4969 204.676 15.8798L204.671 15.8991L204.667 15.9185C204.614 16.1586 204.512 16.3549 204.353 16.5294C204.207 16.6693 203.938 16.8437 203.462 17.0037C203.039 17.1329 202.395 17.2198 201.48 17.2198H195.609V3.74936Z" fill="#F1F1F1"/>
</svg>
