<svg width="720" height="208" viewBox="0 0 720 208" fill="none" xmlns="http://www.w3.org/2000/svg">
<g filter="url(#filter0_f_2_140)">
<path d="M103.587 145.784V104.139H128.188V104.91H104.358V126.967H121.941V127.738H104.358V145.784H103.587Z" fill="#00D1FF"/>
<path d="M188.509 145.784H163.985V145.013H175.939V104.91H163.985V104.139H188.509V104.91H176.71V145.013H188.509V145.784Z" fill="#00D1FF"/>
<path d="M228.725 142.314V145.784H227.954V142.314C227.954 141.183 227.98 140.129 228.031 139.152C228.134 138.123 228.494 137.198 229.111 136.375L238.365 123.728L229.111 111.234C228.545 110.411 228.211 109.512 228.108 108.535C228.006 107.506 227.954 106.427 227.954 105.296V104.139H228.725V105.296C228.725 106.375 228.777 107.404 228.88 108.38C228.982 109.357 229.291 110.206 229.805 110.925L239.059 123.419H248.237L257.183 110.925C257.697 110.206 258.006 109.357 258.108 108.38C258.211 107.404 258.263 106.375 258.263 105.296V104.139H259.034V105.296C259.034 106.427 258.982 107.506 258.88 108.535C258.777 109.512 258.443 110.411 257.877 111.234L248.777 123.882L257.877 136.375C258.443 137.198 258.777 138.123 258.88 139.152C258.982 140.129 259.034 141.183 259.034 142.314V145.784H258.263V142.314C258.263 141.234 258.211 140.206 258.108 139.229C258.006 138.252 257.697 137.404 257.183 136.684L248.16 124.19H238.905L229.805 136.684C229.291 137.352 228.982 138.201 228.88 139.229C228.777 140.206 228.725 141.234 228.725 142.314Z" fill="#00D1FF"/>
<path d="M324.687 104.139V104.91H307.566C305.407 104.91 303.685 105.501 302.399 106.684C301.114 107.866 300.471 109.357 300.471 111.157V117.481C300.471 119.28 300.831 120.54 301.551 121.26C302.271 121.979 303.222 122.442 304.404 122.648L320.677 125.964C322.219 126.272 323.479 126.941 324.456 127.969C325.484 128.997 325.998 130.848 325.998 133.522V137.995C325.998 140.257 325.227 142.134 323.685 143.625C322.142 145.064 320.06 145.784 317.438 145.784H298.235V145.013H317.438C319.803 145.013 321.679 144.37 323.068 143.085C324.507 141.748 325.227 140.051 325.227 137.995V133.522C325.227 131.105 324.79 129.46 323.916 128.586C323.093 127.661 321.962 127.044 320.523 126.735L304.25 123.419C302.913 123.162 301.808 122.648 300.934 121.877C300.111 121.054 299.7 119.589 299.7 117.481V111.157C299.7 109.1 300.42 107.429 301.859 106.144C303.299 104.807 305.201 104.139 307.566 104.139H324.687Z" fill="#00D1FF"/>
<path d="M396.902 136.375C396.902 139.46 395.797 141.979 393.586 143.933C391.375 145.835 387.262 146.787 381.247 146.787C375.231 146.787 371.144 145.835 368.985 143.933C366.825 141.979 365.745 139.46 365.745 136.375V113.625C365.745 110.54 366.825 108.046 368.985 106.144C371.144 104.19 375.231 103.213 381.247 103.213C387.262 103.213 391.375 104.19 393.586 106.144C395.797 108.046 396.902 110.54 396.902 113.625V136.375ZM366.517 136.375C366.517 139.254 367.545 141.594 369.602 143.393C371.658 145.141 375.54 146.015 381.247 146.015C386.954 146.015 390.861 145.141 392.969 143.393C395.077 141.594 396.131 139.254 396.131 136.375V113.625C396.131 110.745 395.077 108.432 392.969 106.684C390.861 104.884 386.954 103.985 381.247 103.985C375.54 103.985 371.658 104.884 369.602 106.684C367.545 108.432 366.517 110.745 366.517 113.625V136.375Z" fill="#00D1FF"/>
<path d="M438.648 104.139H439.419V136.298C439.419 139.177 440.422 141.517 442.427 143.316C444.484 145.064 448.365 145.938 454.072 145.938C459.779 145.938 463.661 145.064 465.718 143.316C467.774 141.517 468.802 139.177 468.802 136.298V104.139H469.574V136.298C469.574 139.383 468.494 141.902 466.335 143.856C464.175 145.758 460.088 146.71 454.072 146.71C448.057 146.71 443.97 145.758 441.81 143.856C439.702 141.902 438.648 139.383 438.648 136.298V104.139Z" fill="#00D1FF"/>
<path d="M513.694 104.756L542.074 136.684V104.139H542.846V145.784H542.074V137.841L512.923 105.141C512.871 105.09 512.794 105.039 512.691 104.987C512.64 104.936 512.589 104.91 512.537 104.91C512.486 104.91 512.434 104.936 512.383 104.987C512.383 105.039 512.383 105.09 512.383 105.141V145.784H511.612V104.987C511.612 104.679 511.715 104.447 511.92 104.293C512.126 104.139 512.332 104.062 512.537 104.062C512.743 104.062 512.923 104.113 513.077 104.216C513.231 104.319 513.437 104.499 513.694 104.756Z" fill="#00D1FF"/>
<path d="M585.411 145.784V104.139H604.074C606.696 104.139 608.804 104.422 610.398 104.987C612.043 105.553 613.303 106.324 614.177 107.301C615.051 108.226 615.642 109.357 615.951 110.694C616.259 111.979 616.413 113.368 616.413 114.859V135.296C616.413 136.787 616.259 138.175 615.951 139.46C615.694 140.745 615.128 141.851 614.254 142.776C613.38 143.702 612.12 144.447 610.475 145.013C608.83 145.527 606.696 145.784 604.074 145.784H585.411ZM604.074 104.91H586.182V145.013H604.074C606.542 145.013 608.521 144.781 610.012 144.319C611.555 143.805 612.737 143.136 613.56 142.314C614.383 141.44 614.922 140.411 615.18 139.229C615.488 137.995 615.642 136.684 615.642 135.296V114.859C615.642 113.47 615.488 112.159 615.18 110.925C614.871 109.692 614.305 108.638 613.483 107.763C612.66 106.889 611.478 106.195 609.935 105.681C608.444 105.167 606.491 104.91 604.074 104.91Z" fill="#00D1FF"/>
<path fill-rule="evenodd" clip-rule="evenodd" d="M100.373 148.997V100.925H131.401V108.123H107.571V123.753H125.155V130.951H107.571V148.997H100.373ZM121.941 127.738V126.967H104.358V104.91H128.188V104.139H103.587V145.784H104.358V127.738H121.941ZM191.723 148.997H160.771V141.799H172.725V108.123H160.771V100.925H191.723V108.123H179.923V141.799H191.723V148.997ZM188.509 104.91V104.139H163.985V104.91H175.939V145.013H163.985V145.784H188.509V145.013H176.71V104.91H188.509ZM231.939 148.997H224.741V142.314C224.741 141.135 224.768 140.024 224.822 138.983L224.826 138.907L224.834 138.832C224.994 137.23 225.565 135.754 226.528 134.464L234.375 123.739L226.495 113.101L226.463 113.054C225.599 111.798 225.072 110.39 224.913 108.871L224.911 108.854C224.797 107.711 224.741 106.524 224.741 105.296V100.925H231.939V105.296C231.939 106.274 231.985 107.189 232.075 108.044C232.125 108.519 232.256 108.822 232.408 109.041L240.678 120.206H246.586L254.568 109.058C254.725 108.838 254.861 108.531 254.913 108.044C255.003 107.189 255.049 106.274 255.049 105.296V100.925H262.247V105.296C262.247 106.524 262.191 107.711 262.077 108.854L262.075 108.871C261.915 110.39 261.389 111.798 260.525 113.054L260.505 113.083L252.744 123.87L260.5 134.519L260.525 134.555C261.406 135.837 261.92 137.278 262.076 138.822C262.192 139.924 262.247 141.089 262.247 142.314V148.997H255.049V142.314C255.049 141.335 255.003 140.42 254.913 139.565C254.862 139.082 254.727 138.776 254.572 138.557C254.571 138.555 254.569 138.553 254.568 138.552L246.517 127.404H240.54L232.378 138.61L232.352 138.643C232.278 138.739 232.134 138.982 232.077 139.549L232.075 139.565C231.985 140.42 231.939 141.335 231.939 142.314V148.997ZM258.263 145.784H259.034V142.314C259.034 141.183 258.982 140.129 258.88 139.152C258.879 139.15 258.879 139.149 258.879 139.148C258.776 138.121 258.442 137.197 257.877 136.375L257.787 136.252L257.785 136.249L248.777 123.882L257.877 111.234C258.443 110.411 258.777 109.512 258.88 108.535C258.882 108.511 258.884 108.487 258.887 108.462C258.922 108.099 258.951 107.729 258.974 107.352C259.014 106.687 259.034 106.001 259.034 105.296V104.139H258.263V105.296C258.263 106.375 258.211 107.404 258.108 108.38C258.106 108.405 258.103 108.429 258.1 108.453C258.1 108.454 258.1 108.455 258.1 108.457C257.996 109.345 257.72 110.125 257.271 110.798C257.268 110.802 257.265 110.807 257.262 110.811C257.236 110.85 257.21 110.888 257.183 110.925L248.237 123.419H239.059L229.805 110.925C229.778 110.888 229.752 110.85 229.726 110.811C229.721 110.804 229.716 110.797 229.711 110.789C229.266 110.119 228.992 109.341 228.888 108.457C228.888 108.455 228.888 108.454 228.888 108.453C228.885 108.429 228.882 108.405 228.88 108.38C228.777 107.404 228.725 106.375 228.725 105.296V104.139H227.954V105.296C227.954 106.001 227.974 106.687 228.014 107.352C228.037 107.729 228.066 108.099 228.101 108.462C228.104 108.487 228.106 108.511 228.108 108.535C228.211 109.512 228.545 110.411 229.111 111.234L238.365 123.728L229.111 136.375C228.496 137.195 228.137 138.116 228.032 139.14C228.032 139.141 228.032 139.143 228.032 139.144C228.032 139.147 228.031 139.149 228.031 139.152C227.98 140.129 227.954 141.183 227.954 142.314V145.784H228.725V142.314C228.725 141.237 228.776 140.211 228.879 139.236C228.879 139.234 228.879 139.231 228.88 139.229C228.881 139.218 228.882 139.207 228.883 139.196C228.982 138.251 229.256 137.459 229.704 136.82C229.706 136.818 229.708 136.816 229.71 136.813C229.741 136.769 229.772 136.726 229.805 136.684L238.905 124.19H248.16L257.183 136.684C257.21 136.722 257.236 136.76 257.262 136.798C257.266 136.804 257.27 136.809 257.273 136.815C257.733 137.506 258.012 138.311 258.108 139.229C258.108 139.23 258.109 139.231 258.109 139.233C258.211 140.208 258.263 141.235 258.263 142.314V145.784ZM327.9 100.925V108.123H307.566C306.013 108.123 305.135 108.533 304.575 109.049C303.973 109.602 303.685 110.225 303.685 111.157V117.481C303.685 118.185 303.757 118.634 303.831 118.892C303.851 118.964 303.87 119.013 303.882 119.043C304.064 119.203 304.373 119.381 304.955 119.482L305.001 119.49L321.307 122.813C321.309 122.813 321.311 122.814 321.313 122.814C323.416 123.236 325.282 124.185 326.759 125.728C328.704 127.699 329.212 130.657 329.212 133.522V137.995C329.212 141.075 328.124 143.803 325.918 145.935L325.898 145.955L325.877 145.974C323.604 148.095 320.667 148.997 317.438 148.997H295.021V141.799H317.438C319.202 141.799 320.226 141.335 320.881 140.73C321.632 140.032 322.014 139.205 322.014 137.995V133.522C322.014 132.486 321.918 131.768 321.794 131.301C321.713 130.998 321.639 130.866 321.618 130.833L321.577 130.792L321.514 130.721C321.228 130.399 320.755 130.074 319.863 129.88C319.859 129.879 319.854 129.878 319.849 129.877L303.643 126.575C303.637 126.573 303.631 126.572 303.624 126.571C301.827 126.222 300.175 125.493 298.808 124.286L298.733 124.22L298.662 124.149C296.903 122.39 296.487 119.811 296.487 117.481V111.157C296.487 108.263 297.54 105.704 299.696 103.768C301.843 101.786 304.576 100.925 307.566 100.925H327.9ZM324.687 104.139H307.566C305.214 104.139 303.319 104.8 301.883 106.122C301.875 106.13 301.867 106.137 301.859 106.144C300.42 107.429 299.7 109.1 299.7 111.157V117.481C299.7 119.589 300.111 121.054 300.934 121.877C301.807 122.647 302.912 123.161 304.247 123.418C304.248 123.419 304.249 123.419 304.25 123.419L320.523 126.735C321.933 127.037 323.047 127.636 323.865 128.53C323.87 128.535 323.875 128.54 323.879 128.545C323.892 128.559 323.904 128.573 323.916 128.586C324.79 129.46 325.227 131.105 325.227 133.522V137.995C325.227 140.023 324.527 141.7 323.128 143.028C323.124 143.032 323.121 143.035 323.117 143.038C323.101 143.054 323.084 143.069 323.068 143.085C321.679 144.37 319.803 145.013 317.438 145.013H298.235V145.784H317.438C320.024 145.784 322.085 145.084 323.621 143.683C323.622 143.683 323.621 143.683 323.621 143.683C323.642 143.664 323.664 143.644 323.685 143.625C325.227 142.134 325.998 140.257 325.998 137.995V133.522C325.998 130.911 325.508 129.085 324.527 128.043C324.516 128.031 324.505 128.02 324.494 128.008C324.481 127.995 324.469 127.982 324.456 127.969C323.481 126.943 322.225 126.276 320.687 125.966C320.685 125.966 320.682 125.965 320.68 125.965C320.679 125.964 320.678 125.964 320.677 125.964L304.404 122.648C304.402 122.647 304.401 122.647 304.399 122.647C303.219 122.441 302.269 121.978 301.551 121.26C301.538 121.247 301.525 121.234 301.513 121.221C300.818 120.495 300.471 119.248 300.471 117.481V111.157C300.471 109.372 301.103 107.891 302.368 106.713C302.371 106.71 302.375 106.706 302.378 106.703C302.385 106.697 302.392 106.69 302.399 106.684C303.685 105.501 305.407 104.91 307.566 104.91H324.687V104.139ZM395.698 146.355L395.682 146.369C392.522 149.088 387.347 150 381.247 150C378.09 150 375.302 149.752 372.941 149.203C370.601 148.658 368.48 147.771 366.86 146.344L366.844 146.33L366.829 146.316C363.952 143.713 362.532 140.307 362.532 136.375V113.625C362.532 109.699 363.949 106.305 366.845 103.746C369.971 100.931 375.16 100 381.247 100C387.347 100 392.532 100.937 395.698 103.722C398.653 106.272 400.116 109.672 400.116 113.625V136.375C400.116 140.334 398.65 143.746 395.714 146.341L395.698 146.355ZM369.066 106.072C369.038 106.096 369.011 106.12 368.985 106.144C366.825 108.046 365.745 110.54 365.745 113.625V136.375C365.745 139.46 366.825 141.979 368.985 143.933C369.012 143.957 369.039 143.981 369.067 144.004C369.07 144.007 369.073 144.009 369.076 144.012C371.258 145.862 375.315 146.787 381.247 146.787C387.173 146.787 391.253 145.863 393.486 144.017C393.489 144.015 393.492 144.012 393.495 144.01C393.526 143.984 393.556 143.959 393.586 143.933C395.797 141.979 396.902 139.46 396.902 136.375V113.625C396.902 110.54 395.797 108.046 393.586 106.144C393.557 106.118 393.527 106.092 393.496 106.066C393.493 106.064 393.491 106.061 393.488 106.059C391.254 104.162 387.174 103.213 381.247 103.213C375.314 103.213 371.257 104.164 369.075 106.064C369.072 106.067 369.069 106.069 369.066 106.072ZM369.602 106.684C369.577 106.704 369.553 106.725 369.529 106.746C369.526 106.748 369.524 106.751 369.521 106.753C367.518 108.493 366.517 110.783 366.517 113.625V136.375C366.517 139.217 367.518 141.533 369.522 143.323C369.525 143.325 369.527 143.328 369.53 143.33C369.554 143.351 369.578 143.372 369.602 143.393C371.658 145.141 375.54 146.015 381.247 146.015C386.954 146.015 390.861 145.141 392.969 143.393C392.996 143.371 393.022 143.348 393.049 143.325C393.051 143.323 393.054 143.32 393.057 143.318C395.106 141.529 396.131 139.214 396.131 136.375V113.625C396.131 110.786 395.107 108.497 393.058 106.758C393.055 106.756 393.052 106.753 393.05 106.751C393.023 106.729 392.996 106.706 392.969 106.684C390.861 104.884 386.954 103.985 381.247 103.985C375.54 103.985 371.658 104.884 369.602 106.684ZM390.902 140.933C392.251 139.774 392.918 138.347 392.918 136.375V113.625C392.918 111.645 392.247 110.26 390.918 109.157L390.9 109.143L390.883 109.128C389.721 108.136 386.867 107.198 381.247 107.198C378.542 107.198 376.406 107.413 374.781 107.79C373.136 108.171 372.207 108.674 371.718 109.102L371.7 109.117L371.683 109.132C370.397 110.225 369.73 111.617 369.73 113.625V136.375C369.73 138.375 370.393 139.808 371.699 140.958C372.192 141.371 373.123 141.856 374.761 142.225C376.394 142.593 378.538 142.802 381.247 142.802C386.852 142.802 389.724 141.896 390.902 140.933ZM435.435 100.925H442.633V136.298C442.633 138.317 443.286 139.753 444.538 140.893C445.034 141.303 445.964 141.782 447.587 142.148C449.22 142.516 451.363 142.725 454.072 142.725C456.781 142.725 458.925 142.516 460.558 142.148C462.196 141.779 463.128 141.294 463.621 140.881C464.926 139.731 465.589 138.298 465.589 136.298V100.925H472.787V136.298C472.787 140.23 471.367 143.636 468.49 146.239L468.475 146.253L468.459 146.267C466.839 147.694 464.718 148.581 462.378 149.126C460.017 149.675 457.229 149.923 454.072 149.923C450.915 149.923 448.128 149.675 445.767 149.126C443.426 148.581 441.305 147.694 439.686 146.267L439.656 146.24L439.626 146.213C436.81 143.603 435.435 140.204 435.435 136.298V100.925ZM439.419 104.139H438.648V136.298C438.648 139.383 439.702 141.902 441.81 143.856C441.835 143.878 441.86 143.899 441.885 143.921C441.89 143.925 441.896 143.93 441.901 143.935C444.083 145.785 448.14 146.71 454.072 146.71C460.004 146.71 464.061 145.785 466.243 143.935C466.246 143.932 466.249 143.93 466.252 143.927C466.28 143.904 466.307 143.88 466.335 143.856C468.494 141.902 469.574 139.383 469.574 136.298V104.139H468.802V136.298C468.802 139.14 467.801 141.456 465.797 143.246C465.794 143.248 465.792 143.251 465.789 143.253C465.765 143.274 465.742 143.295 465.718 143.316C463.661 145.064 459.779 145.938 454.072 145.938C448.365 145.938 444.484 145.064 442.427 143.316C442.406 143.297 442.385 143.278 442.364 143.259C442.359 143.254 442.354 143.25 442.349 143.245C440.396 141.455 439.419 139.14 439.419 136.298V104.139ZM515.966 102.484L516.033 102.55L538.861 128.232V100.925H546.059V148.997H538.861V139.065L515.596 112.969V148.997H508.398V104.987C508.398 103.894 508.811 102.608 509.992 101.722C510.613 101.257 511.478 100.848 512.537 100.848C513.305 100.848 514.12 101.05 514.86 101.542C515.286 101.827 515.673 102.191 515.966 102.484ZM513.077 104.216C512.923 104.113 512.743 104.062 512.537 104.062C512.332 104.062 512.126 104.139 511.92 104.293C511.875 104.327 511.836 104.364 511.801 104.405C511.675 104.552 511.612 104.746 511.612 104.987V145.784H512.383V104.987C512.394 104.976 512.406 104.965 512.418 104.956C512.457 104.925 512.497 104.91 512.537 104.91C512.56 104.91 512.582 104.915 512.604 104.925C512.633 104.937 512.662 104.958 512.691 104.987M513.105 105.345L542.074 137.841V145.784H542.846V104.139H542.074V136.684L513.694 104.756C513.638 104.699 513.584 104.647 513.532 104.598C513.521 104.587 513.51 104.576 513.498 104.566C513.425 104.497 513.358 104.436 513.295 104.383C513.214 104.314 513.141 104.259 513.077 104.216M512.923 105.141L513.105 105.345ZM582.198 148.997V100.925H604.074C606.877 100.925 609.386 101.221 611.458 101.954C613.437 102.636 615.208 103.648 616.542 105.125C617.82 106.489 618.655 108.131 619.08 109.962C619.451 111.516 619.627 113.153 619.627 114.859V135.296C619.627 136.987 619.454 138.61 619.089 140.153C618.711 141.986 617.877 143.621 616.59 144.983C615.253 146.399 613.485 147.376 611.52 148.052L611.477 148.066L611.434 148.08C609.361 148.728 606.871 148.997 604.074 148.997H582.198ZM610.19 104.916C608.623 104.398 606.584 104.139 604.074 104.139H585.411V145.784H604.074C606.578 145.784 608.636 145.55 610.249 145.081C610.254 145.079 610.26 145.078 610.265 145.076C610.336 145.056 610.406 145.034 610.475 145.013C612.05 144.471 613.272 143.765 614.14 142.894C614.146 142.888 614.152 142.882 614.158 142.876C614.19 142.843 614.222 142.81 614.254 142.776C615.128 141.851 615.694 140.745 615.951 139.46C615.954 139.448 615.957 139.436 615.959 139.424C615.961 139.416 615.963 139.408 615.965 139.4C616.264 138.131 616.413 136.763 616.413 135.296V114.859C616.413 113.382 616.262 112.006 615.959 110.73C615.957 110.718 615.954 110.706 615.951 110.694C615.642 109.357 615.051 108.226 614.177 107.301C614.146 107.266 614.115 107.232 614.083 107.198C613.214 106.27 611.985 105.533 610.398 104.987C610.332 104.964 610.266 104.941 610.198 104.919C610.196 104.918 610.193 104.917 610.19 104.916ZM615.18 139.229C615.488 137.995 615.642 136.684 615.642 135.296V114.859C615.642 113.47 615.488 112.159 615.18 110.925C615.176 110.911 615.172 110.896 615.169 110.882C615.168 110.88 615.167 110.877 615.167 110.875C614.868 109.711 614.338 108.708 613.578 107.867C613.573 107.861 613.568 107.856 613.563 107.85C613.537 107.821 613.51 107.792 613.483 107.763C612.696 106.928 611.581 106.257 610.136 105.75C610.133 105.749 610.131 105.748 610.128 105.747C610.065 105.725 610 105.703 609.935 105.681C608.444 105.167 606.491 104.91 604.074 104.91H586.182V145.013H604.074C606.542 145.013 608.521 144.781 610.012 144.319C610.08 144.296 610.147 144.273 610.213 144.25C610.22 144.248 610.227 144.245 610.235 144.243C611.669 143.739 612.777 143.096 613.56 142.314C613.592 142.28 613.624 142.245 613.655 142.211C614.408 141.378 614.91 140.408 615.163 139.303C615.165 139.293 615.168 139.283 615.17 139.273C615.173 139.258 615.176 139.243 615.18 139.229ZM589.395 108.123H604.074C606.303 108.123 607.863 108.366 608.888 108.719L608.903 108.724L608.919 108.73C610.128 109.133 610.791 109.592 611.143 109.966C611.566 110.416 611.879 110.971 612.062 111.705C612.301 112.662 612.429 113.709 612.429 114.859V135.296C612.429 136.445 612.301 137.492 612.062 138.449L612.05 138.498L612.04 138.546C611.909 139.146 611.654 139.637 611.255 140.073C610.892 140.423 610.218 140.859 609.029 141.259C607.971 141.582 606.361 141.799 604.074 141.799H589.395V108.123Z" fill="#00D1FF"/>
</g>
<g filter="url(#filter1_f_2_140)">
<path d="M103.587 145.784V104.139H128.188V104.91H104.358V126.967H121.941V127.738H104.358V145.784H103.587Z" fill="#00D1FF"/>
<path d="M188.509 145.784H163.985V145.013H175.939V104.91H163.985V104.139H188.509V104.91H176.71V145.013H188.509V145.784Z" fill="#00D1FF"/>
<path d="M228.725 142.314V145.784H227.954V142.314C227.954 141.183 227.98 140.129 228.031 139.152C228.134 138.123 228.494 137.198 229.111 136.375L238.365 123.728L229.111 111.234C228.545 110.411 228.211 109.512 228.108 108.535C228.006 107.506 227.954 106.427 227.954 105.296V104.139H228.725V105.296C228.725 106.375 228.777 107.404 228.88 108.38C228.982 109.357 229.291 110.206 229.805 110.925L239.059 123.419H248.237L257.183 110.925C257.697 110.206 258.006 109.357 258.108 108.38C258.211 107.404 258.263 106.375 258.263 105.296V104.139H259.034V105.296C259.034 106.427 258.982 107.506 258.88 108.535C258.777 109.512 258.443 110.411 257.877 111.234L248.777 123.882L257.877 136.375C258.443 137.198 258.777 138.123 258.88 139.152C258.982 140.129 259.034 141.183 259.034 142.314V145.784H258.263V142.314C258.263 141.234 258.211 140.206 258.108 139.229C258.006 138.252 257.697 137.404 257.183 136.684L248.16 124.19H238.905L229.805 136.684C229.291 137.352 228.982 138.201 228.88 139.229C228.777 140.206 228.725 141.234 228.725 142.314Z" fill="#00D1FF"/>
<path d="M324.687 104.139V104.91H307.566C305.407 104.91 303.685 105.501 302.399 106.684C301.114 107.866 300.471 109.357 300.471 111.157V117.481C300.471 119.28 300.831 120.54 301.551 121.26C302.271 121.979 303.222 122.442 304.404 122.648L320.677 125.964C322.219 126.272 323.479 126.941 324.456 127.969C325.484 128.997 325.998 130.848 325.998 133.522V137.995C325.998 140.257 325.227 142.134 323.685 143.625C322.142 145.064 320.06 145.784 317.438 145.784H298.235V145.013H317.438C319.803 145.013 321.679 144.37 323.068 143.085C324.507 141.748 325.227 140.051 325.227 137.995V133.522C325.227 131.105 324.79 129.46 323.916 128.586C323.093 127.661 321.962 127.044 320.523 126.735L304.25 123.419C302.913 123.162 301.808 122.648 300.934 121.877C300.111 121.054 299.7 119.589 299.7 117.481V111.157C299.7 109.1 300.42 107.429 301.859 106.144C303.299 104.807 305.201 104.139 307.566 104.139H324.687Z" fill="#00D1FF"/>
<path d="M396.902 136.375C396.902 139.46 395.797 141.979 393.586 143.933C391.375 145.835 387.262 146.787 381.247 146.787C375.231 146.787 371.144 145.835 368.985 143.933C366.825 141.979 365.745 139.46 365.745 136.375V113.625C365.745 110.54 366.825 108.046 368.985 106.144C371.144 104.19 375.231 103.213 381.247 103.213C387.262 103.213 391.375 104.19 393.586 106.144C395.797 108.046 396.902 110.54 396.902 113.625V136.375ZM366.517 136.375C366.517 139.254 367.545 141.594 369.602 143.393C371.658 145.141 375.54 146.015 381.247 146.015C386.954 146.015 390.861 145.141 392.969 143.393C395.077 141.594 396.131 139.254 396.131 136.375V113.625C396.131 110.745 395.077 108.432 392.969 106.684C390.861 104.884 386.954 103.985 381.247 103.985C375.54 103.985 371.658 104.884 369.602 106.684C367.545 108.432 366.517 110.745 366.517 113.625V136.375Z" fill="#00D1FF"/>
<path d="M438.648 104.139H439.419V136.298C439.419 139.177 440.422 141.517 442.427 143.316C444.484 145.064 448.365 145.938 454.072 145.938C459.779 145.938 463.661 145.064 465.718 143.316C467.774 141.517 468.802 139.177 468.802 136.298V104.139H469.574V136.298C469.574 139.383 468.494 141.902 466.335 143.856C464.175 145.758 460.088 146.71 454.072 146.71C448.057 146.71 443.97 145.758 441.81 143.856C439.702 141.902 438.648 139.383 438.648 136.298V104.139Z" fill="#00D1FF"/>
<path d="M513.694 104.756L542.074 136.684V104.139H542.846V145.784H542.074V137.841L512.923 105.141C512.871 105.09 512.794 105.039 512.691 104.987C512.64 104.936 512.589 104.91 512.537 104.91C512.486 104.91 512.434 104.936 512.383 104.987C512.383 105.039 512.383 105.09 512.383 105.141V145.784H511.612V104.987C511.612 104.679 511.715 104.447 511.92 104.293C512.126 104.139 512.332 104.062 512.537 104.062C512.743 104.062 512.923 104.113 513.077 104.216C513.231 104.319 513.437 104.499 513.694 104.756Z" fill="#00D1FF"/>
<path d="M585.411 145.784V104.139H604.074C606.696 104.139 608.804 104.422 610.398 104.987C612.043 105.553 613.303 106.324 614.177 107.301C615.051 108.226 615.642 109.357 615.951 110.694C616.259 111.979 616.413 113.368 616.413 114.859V135.296C616.413 136.787 616.259 138.175 615.951 139.46C615.694 140.745 615.128 141.851 614.254 142.776C613.38 143.702 612.12 144.447 610.475 145.013C608.83 145.527 606.696 145.784 604.074 145.784H585.411ZM604.074 104.91H586.182V145.013H604.074C606.542 145.013 608.521 144.781 610.012 144.319C611.555 143.805 612.737 143.136 613.56 142.314C614.383 141.44 614.922 140.411 615.18 139.229C615.488 137.995 615.642 136.684 615.642 135.296V114.859C615.642 113.47 615.488 112.159 615.18 110.925C614.871 109.692 614.305 108.638 613.483 107.763C612.66 106.889 611.478 106.195 609.935 105.681C608.444 105.167 606.491 104.91 604.074 104.91Z" fill="#00D1FF"/>
<path fill-rule="evenodd" clip-rule="evenodd" d="M100.373 148.997V100.925H131.401V108.123H107.571V123.753H125.155V130.951H107.571V148.997H100.373ZM121.941 127.738V126.967H104.358V104.91H128.188V104.139H103.587V145.784H104.358V127.738H121.941ZM191.723 148.997H160.771V141.799H172.725V108.123H160.771V100.925H191.723V108.123H179.923V141.799H191.723V148.997ZM188.509 104.91V104.139H163.985V104.91H175.939V145.013H163.985V145.784H188.509V145.013H176.71V104.91H188.509ZM231.939 148.997H224.741V142.314C224.741 141.135 224.768 140.024 224.822 138.983L224.826 138.907L224.834 138.832C224.994 137.23 225.565 135.754 226.528 134.464L234.375 123.739L226.495 113.101L226.463 113.054C225.599 111.798 225.072 110.39 224.913 108.871L224.911 108.854C224.797 107.711 224.741 106.524 224.741 105.296V100.925H231.939V105.296C231.939 106.274 231.985 107.189 232.075 108.044C232.125 108.519 232.256 108.822 232.408 109.041L240.678 120.206H246.586L254.568 109.058C254.725 108.838 254.861 108.531 254.913 108.044C255.003 107.189 255.049 106.274 255.049 105.296V100.925H262.247V105.296C262.247 106.524 262.191 107.711 262.077 108.854L262.075 108.871C261.915 110.39 261.389 111.798 260.525 113.054L260.505 113.083L252.744 123.87L260.5 134.519L260.525 134.555C261.406 135.837 261.92 137.278 262.076 138.822C262.192 139.924 262.247 141.089 262.247 142.314V148.997H255.049V142.314C255.049 141.335 255.003 140.42 254.913 139.565C254.862 139.082 254.727 138.776 254.572 138.557C254.571 138.555 254.569 138.553 254.568 138.552L246.517 127.404H240.54L232.378 138.61L232.352 138.643C232.278 138.739 232.134 138.982 232.077 139.549L232.075 139.565C231.985 140.42 231.939 141.335 231.939 142.314V148.997ZM258.263 145.784H259.034V142.314C259.034 141.183 258.982 140.129 258.88 139.152C258.879 139.15 258.879 139.149 258.879 139.148C258.776 138.121 258.442 137.197 257.877 136.375L257.787 136.252L257.785 136.249L248.777 123.882L257.877 111.234C258.443 110.411 258.777 109.512 258.88 108.535C258.882 108.511 258.884 108.487 258.887 108.462C258.922 108.099 258.951 107.729 258.974 107.352C259.014 106.687 259.034 106.001 259.034 105.296V104.139H258.263V105.296C258.263 106.375 258.211 107.404 258.108 108.38C258.106 108.405 258.103 108.429 258.1 108.453C258.1 108.454 258.1 108.455 258.1 108.457C257.996 109.345 257.72 110.125 257.271 110.798C257.268 110.802 257.265 110.807 257.262 110.811C257.236 110.85 257.21 110.888 257.183 110.925L248.237 123.419H239.059L229.805 110.925C229.778 110.888 229.752 110.85 229.726 110.811C229.721 110.804 229.716 110.797 229.711 110.789C229.266 110.119 228.992 109.341 228.888 108.457C228.888 108.455 228.888 108.454 228.888 108.453C228.885 108.429 228.882 108.405 228.88 108.38C228.777 107.404 228.725 106.375 228.725 105.296V104.139H227.954V105.296C227.954 106.001 227.974 106.687 228.014 107.352C228.037 107.729 228.066 108.099 228.101 108.462C228.104 108.487 228.106 108.511 228.108 108.535C228.211 109.512 228.545 110.411 229.111 111.234L238.365 123.728L229.111 136.375C228.496 137.195 228.137 138.116 228.032 139.14C228.032 139.141 228.032 139.143 228.032 139.144C228.032 139.147 228.031 139.149 228.031 139.152C227.98 140.129 227.954 141.183 227.954 142.314V145.784H228.725V142.314C228.725 141.237 228.776 140.211 228.879 139.236C228.879 139.234 228.879 139.231 228.88 139.229C228.881 139.218 228.882 139.207 228.883 139.196C228.982 138.251 229.256 137.459 229.704 136.82C229.706 136.818 229.708 136.816 229.71 136.813C229.741 136.769 229.772 136.726 229.805 136.684L238.905 124.19H248.16L257.183 136.684C257.21 136.722 257.236 136.76 257.262 136.798C257.266 136.804 257.27 136.809 257.273 136.815C257.733 137.506 258.012 138.311 258.108 139.229C258.108 139.23 258.109 139.231 258.109 139.233C258.211 140.208 258.263 141.235 258.263 142.314V145.784ZM327.9 100.925V108.123H307.566C306.013 108.123 305.135 108.533 304.575 109.049C303.973 109.602 303.685 110.225 303.685 111.157V117.481C303.685 118.185 303.757 118.634 303.831 118.892C303.851 118.964 303.87 119.013 303.882 119.043C304.064 119.203 304.373 119.381 304.955 119.482L305.001 119.49L321.307 122.813C321.309 122.813 321.311 122.814 321.313 122.814C323.416 123.236 325.282 124.185 326.759 125.728C328.704 127.699 329.212 130.657 329.212 133.522V137.995C329.212 141.075 328.124 143.803 325.918 145.935L325.898 145.955L325.877 145.974C323.604 148.095 320.667 148.997 317.438 148.997H295.021V141.799H317.438C319.202 141.799 320.226 141.335 320.881 140.73C321.632 140.032 322.014 139.205 322.014 137.995V133.522C322.014 132.486 321.918 131.768 321.794 131.301C321.713 130.998 321.639 130.866 321.618 130.833L321.577 130.792L321.514 130.721C321.228 130.399 320.755 130.074 319.863 129.88C319.859 129.879 319.854 129.878 319.849 129.877L303.643 126.575C303.637 126.573 303.631 126.572 303.624 126.571C301.827 126.222 300.175 125.493 298.808 124.286L298.733 124.22L298.662 124.149C296.903 122.39 296.487 119.811 296.487 117.481V111.157C296.487 108.263 297.54 105.704 299.696 103.768C301.843 101.786 304.576 100.925 307.566 100.925H327.9ZM324.687 104.139H307.566C305.214 104.139 303.319 104.8 301.883 106.122C301.875 106.13 301.867 106.137 301.859 106.144C300.42 107.429 299.7 109.1 299.7 111.157V117.481C299.7 119.589 300.111 121.054 300.934 121.877C301.807 122.647 302.912 123.161 304.247 123.418C304.248 123.419 304.249 123.419 304.25 123.419L320.523 126.735C321.933 127.037 323.047 127.636 323.865 128.53C323.87 128.535 323.875 128.54 323.879 128.545C323.892 128.559 323.904 128.573 323.916 128.586C324.79 129.46 325.227 131.105 325.227 133.522V137.995C325.227 140.023 324.527 141.7 323.128 143.028C323.124 143.032 323.121 143.035 323.117 143.038C323.101 143.054 323.084 143.069 323.068 143.085C321.679 144.37 319.803 145.013 317.438 145.013H298.235V145.784H317.438C320.024 145.784 322.085 145.084 323.621 143.683C323.622 143.683 323.621 143.683 323.621 143.683C323.642 143.664 323.664 143.644 323.685 143.625C325.227 142.134 325.998 140.257 325.998 137.995V133.522C325.998 130.911 325.508 129.085 324.527 128.043C324.516 128.031 324.505 128.02 324.494 128.008C324.481 127.995 324.469 127.982 324.456 127.969C323.481 126.943 322.225 126.276 320.687 125.966C320.685 125.966 320.682 125.965 320.68 125.965C320.679 125.964 320.678 125.964 320.677 125.964L304.404 122.648C304.402 122.647 304.401 122.647 304.399 122.647C303.219 122.441 302.269 121.978 301.551 121.26C301.538 121.247 301.525 121.234 301.513 121.221C300.818 120.495 300.471 119.248 300.471 117.481V111.157C300.471 109.372 301.103 107.891 302.368 106.713C302.371 106.71 302.375 106.706 302.378 106.703C302.385 106.697 302.392 106.69 302.399 106.684C303.685 105.501 305.407 104.91 307.566 104.91H324.687V104.139ZM395.698 146.355L395.682 146.369C392.522 149.088 387.347 150 381.247 150C378.09 150 375.302 149.752 372.941 149.203C370.601 148.658 368.48 147.771 366.86 146.344L366.844 146.33L366.829 146.316C363.952 143.713 362.532 140.307 362.532 136.375V113.625C362.532 109.699 363.949 106.305 366.845 103.746C369.971 100.931 375.16 100 381.247 100C387.347 100 392.532 100.937 395.698 103.722C398.653 106.272 400.116 109.672 400.116 113.625V136.375C400.116 140.334 398.65 143.746 395.714 146.341L395.698 146.355ZM369.066 106.072C369.038 106.096 369.011 106.12 368.985 106.144C366.825 108.046 365.745 110.54 365.745 113.625V136.375C365.745 139.46 366.825 141.979 368.985 143.933C369.012 143.957 369.039 143.981 369.067 144.004C369.07 144.007 369.073 144.009 369.076 144.012C371.258 145.862 375.315 146.787 381.247 146.787C387.173 146.787 391.253 145.863 393.486 144.017C393.489 144.015 393.492 144.012 393.495 144.01C393.526 143.984 393.556 143.959 393.586 143.933C395.797 141.979 396.902 139.46 396.902 136.375V113.625C396.902 110.54 395.797 108.046 393.586 106.144C393.557 106.118 393.527 106.092 393.496 106.066C393.493 106.064 393.491 106.061 393.488 106.059C391.254 104.162 387.174 103.213 381.247 103.213C375.314 103.213 371.257 104.164 369.075 106.064C369.072 106.067 369.069 106.069 369.066 106.072ZM369.602 106.684C369.577 106.704 369.553 106.725 369.529 106.746C369.526 106.748 369.524 106.751 369.521 106.753C367.518 108.493 366.517 110.783 366.517 113.625V136.375C366.517 139.217 367.518 141.533 369.522 143.323C369.525 143.325 369.527 143.328 369.53 143.33C369.554 143.351 369.578 143.372 369.602 143.393C371.658 145.141 375.54 146.015 381.247 146.015C386.954 146.015 390.861 145.141 392.969 143.393C392.996 143.371 393.022 143.348 393.049 143.325C393.051 143.323 393.054 143.32 393.057 143.318C395.106 141.529 396.131 139.214 396.131 136.375V113.625C396.131 110.786 395.107 108.497 393.058 106.758C393.055 106.756 393.052 106.753 393.05 106.751C393.023 106.729 392.996 106.706 392.969 106.684C390.861 104.884 386.954 103.985 381.247 103.985C375.54 103.985 371.658 104.884 369.602 106.684ZM390.902 140.933C392.251 139.774 392.918 138.347 392.918 136.375V113.625C392.918 111.645 392.247 110.26 390.918 109.157L390.9 109.143L390.883 109.128C389.721 108.136 386.867 107.198 381.247 107.198C378.542 107.198 376.406 107.413 374.781 107.79C373.136 108.171 372.207 108.674 371.718 109.102L371.7 109.117L371.683 109.132C370.397 110.225 369.73 111.617 369.73 113.625V136.375C369.73 138.375 370.393 139.808 371.699 140.958C372.192 141.371 373.123 141.856 374.761 142.225C376.394 142.593 378.538 142.802 381.247 142.802C386.852 142.802 389.724 141.896 390.902 140.933ZM435.435 100.925H442.633V136.298C442.633 138.317 443.286 139.753 444.538 140.893C445.034 141.303 445.964 141.782 447.587 142.148C449.22 142.516 451.363 142.725 454.072 142.725C456.781 142.725 458.925 142.516 460.558 142.148C462.196 141.779 463.128 141.294 463.621 140.881C464.926 139.731 465.589 138.298 465.589 136.298V100.925H472.787V136.298C472.787 140.23 471.367 143.636 468.49 146.239L468.475 146.253L468.459 146.267C466.839 147.694 464.718 148.581 462.378 149.126C460.017 149.675 457.229 149.923 454.072 149.923C450.915 149.923 448.128 149.675 445.767 149.126C443.426 148.581 441.305 147.694 439.686 146.267L439.656 146.24L439.626 146.213C436.81 143.603 435.435 140.204 435.435 136.298V100.925ZM439.419 104.139H438.648V136.298C438.648 139.383 439.702 141.902 441.81 143.856C441.835 143.878 441.86 143.899 441.885 143.921C441.89 143.925 441.896 143.93 441.901 143.935C444.083 145.785 448.14 146.71 454.072 146.71C460.004 146.71 464.061 145.785 466.243 143.935C466.246 143.932 466.249 143.93 466.252 143.927C466.28 143.904 466.307 143.88 466.335 143.856C468.494 141.902 469.574 139.383 469.574 136.298V104.139H468.802V136.298C468.802 139.14 467.801 141.456 465.797 143.246C465.794 143.248 465.792 143.251 465.789 143.253C465.765 143.274 465.742 143.295 465.718 143.316C463.661 145.064 459.779 145.938 454.072 145.938C448.365 145.938 444.484 145.064 442.427 143.316C442.406 143.297 442.385 143.278 442.364 143.259C442.359 143.254 442.354 143.25 442.349 143.245C440.396 141.455 439.419 139.14 439.419 136.298V104.139ZM515.966 102.484L516.033 102.55L538.861 128.232V100.925H546.059V148.997H538.861V139.065L515.596 112.969V148.997H508.398V104.987C508.398 103.894 508.811 102.608 509.992 101.722C510.613 101.257 511.478 100.848 512.537 100.848C513.305 100.848 514.12 101.05 514.86 101.542C515.286 101.827 515.673 102.191 515.966 102.484ZM513.077 104.216C512.923 104.113 512.743 104.062 512.537 104.062C512.332 104.062 512.126 104.139 511.92 104.293C511.875 104.327 511.836 104.364 511.801 104.405C511.675 104.552 511.612 104.746 511.612 104.987V145.784H512.383V104.987C512.394 104.976 512.406 104.965 512.418 104.956C512.457 104.925 512.497 104.91 512.537 104.91C512.56 104.91 512.582 104.915 512.604 104.925C512.633 104.937 512.662 104.958 512.691 104.987M513.105 105.345L542.074 137.841V145.784H542.846V104.139H542.074V136.684L513.694 104.756C513.638 104.699 513.584 104.647 513.532 104.598C513.521 104.587 513.51 104.576 513.498 104.566C513.425 104.497 513.358 104.436 513.295 104.383C513.214 104.314 513.141 104.259 513.077 104.216M512.923 105.141L513.105 105.345ZM582.198 148.997V100.925H604.074C606.877 100.925 609.386 101.221 611.458 101.954C613.437 102.636 615.208 103.648 616.542 105.125C617.82 106.489 618.655 108.131 619.08 109.962C619.451 111.516 619.627 113.153 619.627 114.859V135.296C619.627 136.987 619.454 138.61 619.089 140.153C618.711 141.986 617.877 143.621 616.59 144.983C615.253 146.399 613.485 147.376 611.52 148.052L611.477 148.066L611.434 148.08C609.361 148.728 606.871 148.997 604.074 148.997H582.198ZM610.19 104.916C608.623 104.398 606.584 104.139 604.074 104.139H585.411V145.784H604.074C606.578 145.784 608.636 145.55 610.249 145.081C610.254 145.079 610.26 145.078 610.265 145.076C610.336 145.056 610.406 145.034 610.475 145.013C612.05 144.471 613.272 143.765 614.14 142.894C614.146 142.888 614.152 142.882 614.158 142.876C614.19 142.843 614.222 142.81 614.254 142.776C615.128 141.851 615.694 140.745 615.951 139.46C615.954 139.448 615.957 139.436 615.959 139.424C615.961 139.416 615.963 139.408 615.965 139.4C616.264 138.131 616.413 136.763 616.413 135.296V114.859C616.413 113.382 616.262 112.006 615.959 110.73C615.957 110.718 615.954 110.706 615.951 110.694C615.642 109.357 615.051 108.226 614.177 107.301C614.146 107.266 614.115 107.232 614.083 107.198C613.214 106.27 611.985 105.533 610.398 104.987C610.332 104.964 610.266 104.941 610.198 104.919C610.196 104.918 610.193 104.917 610.19 104.916ZM615.18 139.229C615.488 137.995 615.642 136.684 615.642 135.296V114.859C615.642 113.47 615.488 112.159 615.18 110.925C615.176 110.911 615.172 110.896 615.169 110.882C615.168 110.88 615.167 110.877 615.167 110.875C614.868 109.711 614.338 108.708 613.578 107.867C613.573 107.861 613.568 107.856 613.563 107.85C613.537 107.821 613.51 107.792 613.483 107.763C612.696 106.928 611.581 106.257 610.136 105.75C610.133 105.749 610.131 105.748 610.128 105.747C610.065 105.725 610 105.703 609.935 105.681C608.444 105.167 606.491 104.91 604.074 104.91H586.182V145.013H604.074C606.542 145.013 608.521 144.781 610.012 144.319C610.08 144.296 610.147 144.273 610.213 144.25C610.22 144.248 610.227 144.245 610.235 144.243C611.669 143.739 612.777 143.096 613.56 142.314C613.592 142.28 613.624 142.245 613.655 142.211C614.408 141.378 614.91 140.408 615.163 139.303C615.165 139.293 615.168 139.283 615.17 139.273C615.173 139.258 615.176 139.243 615.18 139.229ZM589.395 108.123H604.074C606.303 108.123 607.863 108.366 608.888 108.719L608.903 108.724L608.919 108.73C610.128 109.133 610.791 109.592 611.143 109.966C611.566 110.416 611.879 110.971 612.062 111.705C612.301 112.662 612.429 113.709 612.429 114.859V135.296C612.429 136.445 612.301 137.492 612.062 138.449L612.05 138.498L612.04 138.546C611.909 139.146 611.654 139.637 611.255 140.073C610.892 140.423 610.218 140.859 609.029 141.259C607.971 141.582 606.361 141.799 604.074 141.799H589.395V108.123Z" fill="#00D1FF"/>
</g>
<g filter="url(#filter2_i_2_140)">
<path d="M103.587 145.784V104.139H128.188V104.91H104.358V126.967H121.941V127.738H104.358V145.784H103.587Z" fill="#F1F1F1"/>
<path d="M188.509 145.784H163.985V145.013H175.939V104.91H163.985V104.139H188.509V104.91H176.71V145.013H188.509V145.784Z" fill="#F1F1F1"/>
<path d="M228.725 142.314V145.784H227.954V142.314C227.954 141.183 227.98 140.129 228.031 139.152C228.134 138.123 228.494 137.198 229.111 136.375L238.365 123.728L229.111 111.234C228.545 110.411 228.211 109.512 228.108 108.535C228.006 107.506 227.954 106.427 227.954 105.296V104.139H228.725V105.296C228.725 106.375 228.777 107.404 228.88 108.38C228.982 109.357 229.291 110.206 229.805 110.925L239.059 123.419H248.237L257.183 110.925C257.697 110.206 258.006 109.357 258.108 108.38C258.211 107.404 258.263 106.375 258.263 105.296V104.139H259.034V105.296C259.034 106.427 258.982 107.506 258.88 108.535C258.777 109.512 258.443 110.411 257.877 111.234L248.777 123.882L257.877 136.375C258.443 137.198 258.777 138.123 258.88 139.152C258.982 140.129 259.034 141.183 259.034 142.314V145.784H258.263V142.314C258.263 141.234 258.211 140.206 258.108 139.229C258.006 138.252 257.697 137.404 257.183 136.684L248.16 124.19H238.905L229.805 136.684C229.291 137.352 228.982 138.201 228.88 139.229C228.777 140.206 228.725 141.234 228.725 142.314Z" fill="#F1F1F1"/>
<path d="M324.687 104.139V104.91H307.566C305.407 104.91 303.685 105.501 302.399 106.684C301.114 107.866 300.471 109.357 300.471 111.157V117.481C300.471 119.28 300.831 120.54 301.551 121.26C302.271 121.979 303.222 122.442 304.404 122.648L320.677 125.964C322.219 126.272 323.479 126.941 324.456 127.969C325.484 128.997 325.998 130.848 325.998 133.522V137.995C325.998 140.257 325.227 142.134 323.685 143.625C322.142 145.064 320.06 145.784 317.438 145.784H298.235V145.013H317.438C319.803 145.013 321.679 144.37 323.068 143.085C324.507 141.748 325.227 140.051 325.227 137.995V133.522C325.227 131.105 324.79 129.46 323.916 128.586C323.093 127.661 321.962 127.044 320.523 126.735L304.25 123.419C302.913 123.162 301.808 122.648 300.934 121.877C300.111 121.054 299.7 119.589 299.7 117.481V111.157C299.7 109.1 300.42 107.429 301.859 106.144C303.299 104.807 305.201 104.139 307.566 104.139H324.687Z" fill="#F1F1F1"/>
<path d="M396.902 136.375C396.902 139.46 395.797 141.979 393.586 143.933C391.375 145.835 387.262 146.787 381.247 146.787C375.231 146.787 371.144 145.835 368.985 143.933C366.825 141.979 365.745 139.46 365.745 136.375V113.625C365.745 110.54 366.825 108.046 368.985 106.144C371.144 104.19 375.231 103.213 381.247 103.213C387.262 103.213 391.375 104.19 393.586 106.144C395.797 108.046 396.902 110.54 396.902 113.625V136.375ZM366.517 136.375C366.517 139.254 367.545 141.594 369.602 143.393C371.658 145.141 375.54 146.015 381.247 146.015C386.954 146.015 390.861 145.141 392.969 143.393C395.077 141.594 396.131 139.254 396.131 136.375V113.625C396.131 110.745 395.077 108.432 392.969 106.684C390.861 104.884 386.954 103.985 381.247 103.985C375.54 103.985 371.658 104.884 369.602 106.684C367.545 108.432 366.517 110.745 366.517 113.625V136.375Z" fill="#F1F1F1"/>
<path d="M438.648 104.139H439.419V136.298C439.419 139.177 440.422 141.517 442.427 143.316C444.484 145.064 448.365 145.938 454.072 145.938C459.779 145.938 463.661 145.064 465.718 143.316C467.774 141.517 468.802 139.177 468.802 136.298V104.139H469.574V136.298C469.574 139.383 468.494 141.902 466.335 143.856C464.175 145.758 460.088 146.71 454.072 146.71C448.057 146.71 443.97 145.758 441.81 143.856C439.702 141.902 438.648 139.383 438.648 136.298V104.139Z" fill="#F1F1F1"/>
<path d="M513.694 104.756L542.074 136.684V104.139H542.846V145.784H542.074V137.841L512.923 105.141C512.871 105.09 512.794 105.039 512.691 104.987C512.64 104.936 512.589 104.91 512.537 104.91C512.486 104.91 512.434 104.936 512.383 104.987C512.383 105.039 512.383 105.09 512.383 105.141V145.784H511.612V104.987C511.612 104.679 511.715 104.447 511.92 104.293C512.126 104.139 512.332 104.062 512.537 104.062C512.743 104.062 512.923 104.113 513.077 104.216C513.231 104.319 513.437 104.499 513.694 104.756Z" fill="#F1F1F1"/>
<path d="M585.411 145.784V104.139H604.074C606.696 104.139 608.804 104.422 610.398 104.987C612.043 105.553 613.303 106.324 614.177 107.301C615.051 108.226 615.642 109.357 615.951 110.694C616.259 111.979 616.413 113.368 616.413 114.859V135.296C616.413 136.787 616.259 138.175 615.951 139.46C615.694 140.745 615.128 141.851 614.254 142.776C613.38 143.702 612.12 144.447 610.475 145.013C608.83 145.527 606.696 145.784 604.074 145.784H585.411ZM604.074 104.91H586.182V145.013H604.074C606.542 145.013 608.521 144.781 610.012 144.319C611.555 143.805 612.737 143.136 613.56 142.314C614.383 141.44 614.922 140.411 615.18 139.229C615.488 137.995 615.642 136.684 615.642 135.296V114.859C615.642 113.47 615.488 112.159 615.18 110.925C614.871 109.692 614.305 108.638 613.483 107.763C612.66 106.889 611.478 106.195 609.935 105.681C608.444 105.167 606.491 104.91 604.074 104.91Z" fill="#F1F1F1"/>
<path fill-rule="evenodd" clip-rule="evenodd" d="M100.373 148.997V100.925H131.401V108.123H107.571V123.753H125.155V130.951H107.571V148.997H100.373ZM121.941 127.738V126.967H104.358V104.91H128.188V104.139H103.587V145.784H104.358V127.738H121.941ZM191.723 148.997H160.771V141.799H172.725V108.123H160.771V100.925H191.723V108.123H179.923V141.799H191.723V148.997ZM188.509 104.91V104.139H163.985V104.91H175.939V145.013H163.985V145.784H188.509V145.013H176.71V104.91H188.509ZM231.939 148.997H224.741V142.314C224.741 141.135 224.768 140.024 224.822 138.983L224.826 138.907L224.834 138.832C224.994 137.23 225.565 135.754 226.528 134.464L234.375 123.739L226.495 113.101L226.463 113.054C225.599 111.798 225.072 110.39 224.913 108.871L224.911 108.854C224.797 107.711 224.741 106.524 224.741 105.296V100.925H231.939V105.296C231.939 106.274 231.985 107.189 232.075 108.044C232.125 108.519 232.256 108.822 232.408 109.041L240.678 120.206H246.586L254.568 109.058C254.725 108.838 254.861 108.531 254.913 108.044C255.003 107.189 255.049 106.274 255.049 105.296V100.925H262.247V105.296C262.247 106.524 262.191 107.711 262.077 108.854L262.075 108.871C261.915 110.39 261.389 111.798 260.525 113.054L260.505 113.083L252.744 123.87L260.5 134.519L260.525 134.555C261.406 135.837 261.92 137.278 262.076 138.822C262.192 139.924 262.247 141.089 262.247 142.314V148.997H255.049V142.314C255.049 141.335 255.003 140.42 254.913 139.565C254.862 139.082 254.727 138.776 254.572 138.557C254.571 138.555 254.569 138.553 254.568 138.552L246.517 127.404H240.54L232.378 138.61L232.352 138.643C232.278 138.739 232.134 138.982 232.077 139.549L232.075 139.565C231.985 140.42 231.939 141.335 231.939 142.314V148.997ZM258.263 145.784H259.034V142.314C259.034 141.183 258.982 140.129 258.88 139.152C258.879 139.15 258.879 139.149 258.879 139.148C258.776 138.121 258.442 137.197 257.877 136.375L257.787 136.252L257.785 136.249L248.777 123.882L257.877 111.234C258.443 110.411 258.777 109.512 258.88 108.535C258.882 108.511 258.884 108.487 258.887 108.462C258.922 108.099 258.951 107.729 258.974 107.352C259.014 106.687 259.034 106.001 259.034 105.296V104.139H258.263V105.296C258.263 106.375 258.211 107.404 258.108 108.38C258.106 108.405 258.103 108.429 258.1 108.453C258.1 108.454 258.1 108.455 258.1 108.457C257.996 109.345 257.72 110.125 257.271 110.798C257.268 110.802 257.265 110.807 257.262 110.811C257.236 110.85 257.21 110.888 257.183 110.925L248.237 123.419H239.059L229.805 110.925C229.778 110.888 229.752 110.85 229.726 110.811C229.721 110.804 229.716 110.797 229.711 110.789C229.266 110.119 228.992 109.341 228.888 108.457C228.888 108.455 228.888 108.454 228.888 108.453C228.885 108.429 228.882 108.405 228.88 108.38C228.777 107.404 228.725 106.375 228.725 105.296V104.139H227.954V105.296C227.954 106.001 227.974 106.687 228.014 107.352C228.037 107.729 228.066 108.099 228.101 108.462C228.104 108.487 228.106 108.511 228.108 108.535C228.211 109.512 228.545 110.411 229.111 111.234L238.365 123.728L229.111 136.375C228.496 137.195 228.137 138.116 228.032 139.14C228.032 139.141 228.032 139.143 228.032 139.144C228.032 139.147 228.031 139.149 228.031 139.152C227.98 140.129 227.954 141.183 227.954 142.314V145.784H228.725V142.314C228.725 141.237 228.776 140.211 228.879 139.236C228.879 139.234 228.879 139.231 228.88 139.229C228.881 139.218 228.882 139.207 228.883 139.196C228.982 138.251 229.256 137.459 229.704 136.82C229.706 136.818 229.708 136.816 229.71 136.813C229.741 136.769 229.772 136.726 229.805 136.684L238.905 124.19H248.16L257.183 136.684C257.21 136.722 257.236 136.76 257.262 136.798C257.266 136.804 257.27 136.809 257.273 136.815C257.733 137.506 258.012 138.311 258.108 139.229C258.108 139.23 258.109 139.231 258.109 139.233C258.211 140.208 258.263 141.235 258.263 142.314V145.784ZM327.9 100.925V108.123H307.566C306.013 108.123 305.135 108.533 304.575 109.049C303.973 109.602 303.685 110.225 303.685 111.157V117.481C303.685 118.185 303.757 118.634 303.831 118.892C303.851 118.964 303.87 119.013 303.882 119.043C304.064 119.203 304.373 119.381 304.955 119.482L305.001 119.49L321.307 122.813C321.309 122.813 321.311 122.814 321.313 122.814C323.416 123.236 325.282 124.185 326.759 125.728C328.704 127.699 329.212 130.657 329.212 133.522V137.995C329.212 141.075 328.124 143.803 325.918 145.935L325.898 145.955L325.877 145.974C323.604 148.095 320.667 148.997 317.438 148.997H295.021V141.799H317.438C319.202 141.799 320.226 141.335 320.881 140.73C321.632 140.032 322.014 139.205 322.014 137.995V133.522C322.014 132.486 321.918 131.768 321.794 131.301C321.713 130.998 321.639 130.866 321.618 130.833L321.577 130.792L321.514 130.721C321.228 130.399 320.755 130.074 319.863 129.88C319.859 129.879 319.854 129.878 319.849 129.877L303.643 126.575C303.637 126.573 303.631 126.572 303.624 126.571C301.827 126.222 300.175 125.493 298.808 124.286L298.733 124.22L298.662 124.149C296.903 122.39 296.487 119.811 296.487 117.481V111.157C296.487 108.263 297.54 105.704 299.696 103.768C301.843 101.786 304.576 100.925 307.566 100.925H327.9ZM324.687 104.139H307.566C305.214 104.139 303.319 104.8 301.883 106.122C301.875 106.13 301.867 106.137 301.859 106.144C300.42 107.429 299.7 109.1 299.7 111.157V117.481C299.7 119.589 300.111 121.054 300.934 121.877C301.807 122.647 302.912 123.161 304.247 123.418C304.248 123.419 304.249 123.419 304.25 123.419L320.523 126.735C321.933 127.037 323.047 127.636 323.865 128.53C323.87 128.535 323.875 128.54 323.879 128.545C323.892 128.559 323.904 128.573 323.916 128.586C324.79 129.46 325.227 131.105 325.227 133.522V137.995C325.227 140.023 324.527 141.7 323.128 143.028C323.124 143.032 323.121 143.035 323.117 143.038C323.101 143.054 323.084 143.069 323.068 143.085C321.679 144.37 319.803 145.013 317.438 145.013H298.235V145.784H317.438C320.024 145.784 322.085 145.084 323.621 143.683C323.622 143.683 323.621 143.683 323.621 143.683C323.642 143.664 323.664 143.644 323.685 143.625C325.227 142.134 325.998 140.257 325.998 137.995V133.522C325.998 130.911 325.508 129.085 324.527 128.043C324.516 128.031 324.505 128.02 324.494 128.008C324.481 127.995 324.469 127.982 324.456 127.969C323.481 126.943 322.225 126.276 320.687 125.966C320.685 125.966 320.682 125.965 320.68 125.965C320.679 125.964 320.678 125.964 320.677 125.964L304.404 122.648C304.402 122.647 304.401 122.647 304.399 122.647C303.219 122.441 302.269 121.978 301.551 121.26C301.538 121.247 301.525 121.234 301.513 121.221C300.818 120.495 300.471 119.248 300.471 117.481V111.157C300.471 109.372 301.103 107.891 302.368 106.713C302.371 106.71 302.375 106.706 302.378 106.703C302.385 106.697 302.392 106.69 302.399 106.684C303.685 105.501 305.407 104.91 307.566 104.91H324.687V104.139ZM395.698 146.355L395.682 146.369C392.522 149.088 387.347 150 381.247 150C378.09 150 375.302 149.752 372.941 149.203C370.601 148.658 368.48 147.771 366.86 146.344L366.844 146.33L366.829 146.316C363.952 143.713 362.532 140.307 362.532 136.375V113.625C362.532 109.699 363.949 106.305 366.845 103.746C369.971 100.931 375.16 100 381.247 100C387.347 100 392.532 100.937 395.698 103.722C398.653 106.272 400.116 109.672 400.116 113.625V136.375C400.116 140.334 398.65 143.746 395.714 146.341L395.698 146.355ZM369.066 106.072C369.038 106.096 369.011 106.12 368.985 106.144C366.825 108.046 365.745 110.54 365.745 113.625V136.375C365.745 139.46 366.825 141.979 368.985 143.933C369.012 143.957 369.039 143.981 369.067 144.004C369.07 144.007 369.073 144.009 369.076 144.012C371.258 145.862 375.315 146.787 381.247 146.787C387.173 146.787 391.253 145.863 393.486 144.017C393.489 144.015 393.492 144.012 393.495 144.01C393.526 143.984 393.556 143.959 393.586 143.933C395.797 141.979 396.902 139.46 396.902 136.375V113.625C396.902 110.54 395.797 108.046 393.586 106.144C393.557 106.118 393.527 106.092 393.496 106.066C393.493 106.064 393.491 106.061 393.488 106.059C391.254 104.162 387.174 103.213 381.247 103.213C375.314 103.213 371.257 104.164 369.075 106.064C369.072 106.067 369.069 106.069 369.066 106.072ZM369.602 106.684C369.577 106.704 369.553 106.725 369.529 106.746C369.526 106.748 369.524 106.751 369.521 106.753C367.518 108.493 366.517 110.783 366.517 113.625V136.375C366.517 139.217 367.518 141.533 369.522 143.323C369.525 143.325 369.527 143.328 369.53 143.33C369.554 143.351 369.578 143.372 369.602 143.393C371.658 145.141 375.54 146.015 381.247 146.015C386.954 146.015 390.861 145.141 392.969 143.393C392.996 143.371 393.022 143.348 393.049 143.325C393.051 143.323 393.054 143.32 393.057 143.318C395.106 141.529 396.131 139.214 396.131 136.375V113.625C396.131 110.786 395.107 108.497 393.058 106.758C393.055 106.756 393.052 106.753 393.05 106.751C393.023 106.729 392.996 106.706 392.969 106.684C390.861 104.884 386.954 103.985 381.247 103.985C375.54 103.985 371.658 104.884 369.602 106.684ZM390.902 140.933C392.251 139.774 392.918 138.347 392.918 136.375V113.625C392.918 111.645 392.247 110.26 390.918 109.157L390.9 109.143L390.883 109.128C389.721 108.136 386.867 107.198 381.247 107.198C378.542 107.198 376.406 107.413 374.781 107.79C373.136 108.171 372.207 108.674 371.718 109.102L371.7 109.117L371.683 109.132C370.397 110.225 369.73 111.617 369.73 113.625V136.375C369.73 138.375 370.393 139.808 371.699 140.958C372.192 141.371 373.123 141.856 374.761 142.225C376.394 142.593 378.538 142.802 381.247 142.802C386.852 142.802 389.724 141.896 390.902 140.933ZM435.435 100.925H442.633V136.298C442.633 138.317 443.286 139.753 444.538 140.893C445.034 141.303 445.964 141.782 447.587 142.148C449.22 142.516 451.363 142.725 454.072 142.725C456.781 142.725 458.925 142.516 460.558 142.148C462.196 141.779 463.128 141.294 463.621 140.881C464.926 139.731 465.589 138.298 465.589 136.298V100.925H472.787V136.298C472.787 140.23 471.367 143.636 468.49 146.239L468.475 146.253L468.459 146.267C466.839 147.694 464.718 148.581 462.378 149.126C460.017 149.675 457.229 149.923 454.072 149.923C450.915 149.923 448.128 149.675 445.767 149.126C443.426 148.581 441.305 147.694 439.686 146.267L439.656 146.24L439.626 146.213C436.81 143.603 435.435 140.204 435.435 136.298V100.925ZM439.419 104.139H438.648V136.298C438.648 139.383 439.702 141.902 441.81 143.856C441.835 143.878 441.86 143.899 441.885 143.921C441.89 143.925 441.896 143.93 441.901 143.935C444.083 145.785 448.14 146.71 454.072 146.71C460.004 146.71 464.061 145.785 466.243 143.935C466.246 143.932 466.249 143.93 466.252 143.927C466.28 143.904 466.307 143.88 466.335 143.856C468.494 141.902 469.574 139.383 469.574 136.298V104.139H468.802V136.298C468.802 139.14 467.801 141.456 465.797 143.246C465.794 143.248 465.792 143.251 465.789 143.253C465.765 143.274 465.742 143.295 465.718 143.316C463.661 145.064 459.779 145.938 454.072 145.938C448.365 145.938 444.484 145.064 442.427 143.316C442.406 143.297 442.385 143.278 442.364 143.259C442.359 143.254 442.354 143.25 442.349 143.245C440.396 141.455 439.419 139.14 439.419 136.298V104.139ZM515.966 102.484L516.033 102.55L538.861 128.232V100.925H546.059V148.997H538.861V139.065L515.596 112.969V148.997H508.398V104.987C508.398 103.894 508.811 102.608 509.992 101.722C510.613 101.257 511.478 100.848 512.537 100.848C513.305 100.848 514.12 101.05 514.86 101.542C515.286 101.827 515.673 102.191 515.966 102.484ZM513.077 104.216C512.923 104.113 512.743 104.062 512.537 104.062C512.332 104.062 512.126 104.139 511.92 104.293C511.875 104.327 511.836 104.364 511.801 104.405C511.675 104.552 511.612 104.746 511.612 104.987V145.784H512.383V104.987C512.394 104.976 512.406 104.965 512.418 104.956C512.457 104.925 512.497 104.91 512.537 104.91C512.56 104.91 512.582 104.915 512.604 104.925C512.633 104.937 512.662 104.958 512.691 104.987M513.105 105.345L542.074 137.841V145.784H542.846V104.139H542.074V136.684L513.694 104.756C513.638 104.699 513.584 104.647 513.532 104.598C513.521 104.587 513.51 104.576 513.498 104.566C513.425 104.497 513.358 104.436 513.295 104.383C513.214 104.314 513.141 104.259 513.077 104.216M512.923 105.141L513.105 105.345ZM582.198 148.997V100.925H604.074C606.877 100.925 609.386 101.221 611.458 101.954C613.437 102.636 615.208 103.648 616.542 105.125C617.82 106.489 618.655 108.131 619.08 109.962C619.451 111.516 619.627 113.153 619.627 114.859V135.296C619.627 136.987 619.454 138.61 619.089 140.153C618.711 141.986 617.877 143.621 616.59 144.983C615.253 146.399 613.485 147.376 611.52 148.052L611.477 148.066L611.434 148.08C609.361 148.728 606.871 148.997 604.074 148.997H582.198ZM610.19 104.916C608.623 104.398 606.584 104.139 604.074 104.139H585.411V145.784H604.074C606.578 145.784 608.636 145.55 610.249 145.081C610.254 145.079 610.26 145.078 610.265 145.076C610.336 145.056 610.406 145.034 610.475 145.013C612.05 144.471 613.272 143.765 614.14 142.894C614.146 142.888 614.152 142.882 614.158 142.876C614.19 142.843 614.222 142.81 614.254 142.776C615.128 141.851 615.694 140.745 615.951 139.46C615.954 139.448 615.957 139.436 615.959 139.424C615.961 139.416 615.963 139.408 615.965 139.4C616.264 138.131 616.413 136.763 616.413 135.296V114.859C616.413 113.382 616.262 112.006 615.959 110.73C615.957 110.718 615.954 110.706 615.951 110.694C615.642 109.357 615.051 108.226 614.177 107.301C614.146 107.266 614.115 107.232 614.083 107.198C613.214 106.27 611.985 105.533 610.398 104.987C610.332 104.964 610.266 104.941 610.198 104.919C610.196 104.918 610.193 104.917 610.19 104.916ZM615.18 139.229C615.488 137.995 615.642 136.684 615.642 135.296V114.859C615.642 113.47 615.488 112.159 615.18 110.925C615.176 110.911 615.172 110.896 615.169 110.882C615.168 110.88 615.167 110.877 615.167 110.875C614.868 109.711 614.338 108.708 613.578 107.867C613.573 107.861 613.568 107.856 613.563 107.85C613.537 107.821 613.51 107.792 613.483 107.763C612.696 106.928 611.581 106.257 610.136 105.75C610.133 105.749 610.131 105.748 610.128 105.747C610.065 105.725 610 105.703 609.935 105.681C608.444 105.167 606.491 104.91 604.074 104.91H586.182V145.013H604.074C606.542 145.013 608.521 144.781 610.012 144.319C610.08 144.296 610.147 144.273 610.213 144.25C610.22 144.248 610.227 144.245 610.235 144.243C611.669 143.739 612.777 143.096 613.56 142.314C613.592 142.28 613.624 142.245 613.655 142.211C614.408 141.378 614.91 140.408 615.163 139.303C615.165 139.293 615.168 139.283 615.17 139.273C615.173 139.258 615.176 139.243 615.18 139.229ZM589.395 108.123H604.074C606.303 108.123 607.863 108.366 608.888 108.719L608.903 108.724L608.919 108.73C610.128 109.133 610.791 109.592 611.143 109.966C611.566 110.416 611.879 110.971 612.062 111.705C612.301 112.662 612.429 113.709 612.429 114.859V135.296C612.429 136.445 612.301 137.492 612.062 138.449L612.05 138.498L612.04 138.546C611.909 139.146 611.654 139.637 611.255 140.073C610.892 140.423 610.218 140.859 609.029 141.259C607.971 141.582 606.361 141.799 604.074 141.799H589.395V108.123Z" fill="#F1F1F1"/>
</g>
<defs>
<filter id="filter0_f_2_140" x="0.373169" y="0" width="719.254" height="250" filterUnits="userSpaceOnUse" color-interpolation-filters="sRGB">
<feFlood flood-opacity="0" result="BackgroundImageFix"/>
<feBlend mode="normal" in="SourceGraphic" in2="BackgroundImageFix" result="shape"/>
<feGaussianBlur stdDeviation="50" result="effect1_foregroundBlur_2_140"/>
</filter>
<filter id="filter1_f_2_140" x="80.3732" y="80" width="559.254" height="90" filterUnits="userSpaceOnUse" color-interpolation-filters="sRGB">
<feFlood flood-opacity="0" result="BackgroundImageFix"/>
<feBlend mode="normal" in="SourceGraphic" in2="BackgroundImageFix" result="shape"/>
<feGaussianBlur stdDeviation="10" result="effect1_foregroundBlur_2_140"/>
</filter>
<filter id="filter2_i_2_140" x="100.373" y="100" width="519.254" height="50" filterUnits="userSpaceOnUse" color-interpolation-filters="sRGB">
<feFlood flood-opacity="0" result="BackgroundImageFix"/>
<feBlend mode="normal" in="SourceGraphic" in2="BackgroundImageFix" result="shape"/>
<feColorMatrix in="SourceAlpha" type="matrix" values="0 0 0 0 0 0 0 0 0 0 0 0 0 0 0 0 0 0 127 0" result="hardAlpha"/>
<feOffset/>
<feGaussianBlur stdDeviation="15"/>
<feComposite in2="hardAlpha" operator="arithmetic" k2="-1" k3="1"/>
<feColorMatrix type="matrix" values="0 0 0 0 0 0 0 0 0 0.819608 0 0 0 0 1 0 0 0 1 0"/>
<feBlend mode="normal" in2="shape" result="effect1_innerShadow_2_140"/>
</filter>
</defs>
</svg>
