<svg width="550" height="550" viewBox="0 0 550 550" fill="none" xmlns="http://www.w3.org/2000/svg">
<path fill-rule="evenodd" clip-rule="evenodd" d="M274.054 176L256.454 296.467L246.191 376.093C244.724 387.47 228.379 387.825 226.42 376.523L212.569 296.613L203.33 239.531L193.42 296.676L185.58 338.371C183.733 348.197 170.2 349.528 166.473 340.25L149.319 297.547L137.977 265.239L129.845 293.547C128.614 297.833 124.694 300.786 120.234 300.786H82V290.786H120.234L128.365 262.478C131.055 253.113 144.185 252.733 147.412 261.926L158.681 294.026L175.753 336.523L183.58 294.897L193.477 237.822C195.405 226.704 211.399 226.794 213.201 237.933L222.431 294.96L236.273 374.815L246.546 295.105L264.159 174.554C265.823 163.167 282.245 163.141 283.945 174.523L301.941 295.021L314.785 375.296L326.554 295.052L335.044 238.563C336.726 227.372 352.78 227.146 354.776 238.286L364.914 294.862L364.922 294.905L372.513 335.274L387.312 294.048L400.152 260.52C403.55 251.647 416.245 252.069 419.046 261.148L424.927 280.208C426.867 286.497 432.679 290.786 439.26 290.786H468V300.786H439.26C428.292 300.786 418.604 293.637 415.371 283.156L409.491 264.096L396.688 297.526L381.925 338.653C378.48 348.248 364.569 347.141 362.685 337.122L355.082 296.689L344.933 240.049L336.447 296.512L336.444 296.53L324.679 376.747C323.018 388.071 306.719 388.177 304.911 376.876L292.059 296.551L274.054 176Z" fill="#F1F1F1"/>
<path fill-rule="evenodd" clip-rule="evenodd" d="M68.4175 93.477C25.828 141.908 0 205.438 0 275C0 344.842 19.2529 400.664 65.5 453C65.5269 453.03 66.5 454 69.5 454C72.5 454 73.5 453 73.5 453L76.332 450.379L126.64 400.071C126.64 400.071 130.062 397 127 393.5C123.938 390 119.569 393 119.569 393L69.8323 442.736C32.4368 397.05 10 338.645 10 275C10 208.199 34.7167 147.172 75.5037 100.563C75.5037 100.563 78.5 96.5 75.5037 93.477C72.5075 90.454 68.4175 93.477 68.4175 93.477ZM99.4993 76.4398C146.241 35.0952 207.69 10 275 10C342.471 10 404.053 35.2156 450.836 76.7372C450.836 76.7372 454.5 78.5 457 75.5C459.5 72.5 457.92 69.654 457.92 69.654C409.317 26.3285 345.233 0 275 0C204.928 0 140.978 26.2077 92.4154 69.3559C92.4154 69.3559 88.8308 72.8796 92.4154 76.4398C96 80 99.4993 76.4398 99.4993 76.4398ZM275 540C421.355 540 540 421.355 540 275C540 210.66 517.071 151.676 478.938 105.773L429.071 155.64C429.071 155.64 426 159.279 422 155.64C418 152 422 148.569 422 148.569L472.387 98.1816C472.387 98.1816 476 94.5 478.938 94.5C481.876 94.5 483.43 95.9242 485.341 98.1816C525.841 146.027 550 207.341 550 275C550 426.878 426.878 550 275 550C204.149 550 139.556 523.206 90.8013 479.199C90.8013 479.199 88.5 476 91 473C93.5 470 97.8821 472.118 97.8821 472.118C144.819 514.32 206.911 540 275 540Z" fill="#F1F1F1"/>
<path d="M458.624 438.457C455.777 436.457 456.732 433.039 457.624 431.994C538.155 337.683 534.435 195.024 445.259 105.848C351.533 12.122 199.574 12.1219 105.848 105.848C12.1219 199.574 12.122 351.533 105.848 445.259C195.449 534.86 338.271 538.803 432.557 457.088C433.4 456.357 436.277 455.457 438.777 457.957L439.277 458.457C440.777 460.457 440.574 463.367 439.777 464.062C341.57 549.791 192.326 545.88 98.7767 452.33C1.14569 354.699 1.1456 196.408 98.7767 98.7767C196.408 1.1456 354.699 1.14569 452.33 98.7767C545.382 191.829 549.746 339.984 465.423 438.205C464.5 439.28 460.277 439.957 458.624 438.457Z" fill="#F1F1F1"/>
</svg>
