<svg width="750" height="750" viewBox="0 0 750 750" fill="none" xmlns="http://www.w3.org/2000/svg">
<g filter="url(#filter0_f_2_136)">
<path d="M558.624 538.457C555.777 536.457 556.732 533.039 557.624 531.994C638.155 437.683 634.435 295.024 545.259 205.848C451.533 112.122 299.574 112.122 205.848 205.848C112.122 299.574 112.122 451.533 205.848 545.259C295.449 634.86 438.271 638.803 532.557 557.088C533.4 556.357 536.277 555.457 538.777 557.957L539.277 558.457C540.777 560.457 540.574 563.367 539.777 564.062C441.57 649.791 292.326 645.88 198.777 552.33C101.146 454.699 101.146 296.408 198.777 198.777C296.408 101.146 454.699 101.146 552.33 198.777C645.382 291.829 649.746 439.984 565.423 538.205C564.5 539.28 560.277 539.957 558.624 538.457Z" fill="#00D1FF"/>
</g>
<g filter="url(#filter1_f_2_136)">
<path d="M558.624 538.457C555.777 536.457 556.732 533.039 557.624 531.994C638.155 437.683 634.435 295.024 545.259 205.848C451.533 112.122 299.574 112.122 205.848 205.848C112.122 299.574 112.122 451.533 205.848 545.259C295.449 634.86 438.271 638.803 532.557 557.088C533.4 556.357 536.277 555.457 538.777 557.957L539.277 558.457C540.777 560.457 540.574 563.367 539.777 564.062C441.57 649.791 292.326 645.88 198.777 552.33C101.146 454.699 101.146 296.408 198.777 198.777C296.408 101.146 454.699 101.146 552.33 198.777C645.382 291.829 649.746 439.984 565.423 538.205C564.5 539.28 560.277 539.957 558.624 538.457Z" fill="#00D1FF"/>
</g>
<g filter="url(#filter2_i_2_136)">
<path d="M558.624 538.457C555.777 536.457 556.732 533.039 557.624 531.994C638.155 437.683 634.435 295.024 545.259 205.848C451.533 112.122 299.574 112.122 205.848 205.848C112.122 299.574 112.122 451.533 205.848 545.259C295.449 634.86 438.271 638.803 532.557 557.088C533.4 556.357 536.277 555.457 538.777 557.957L539.277 558.457C540.777 560.457 540.574 563.367 539.777 564.062C441.57 649.791 292.326 645.88 198.777 552.33C101.146 454.699 101.146 296.408 198.777 198.777C296.408 101.146 454.699 101.146 552.33 198.777C645.382 291.829 649.746 439.984 565.423 538.205C564.5 539.28 560.277 539.957 558.624 538.457Z" fill="#F1F1F1"/>
</g>
<g filter="url(#filter3_f_2_136)">
<path fill-rule="evenodd" clip-rule="evenodd" d="M168.417 193.477C125.828 241.908 100 305.438 100 375C100 444.842 119.253 500.664 165.5 553C165.527 553.03 166.5 554 169.5 554C172.5 554 173.5 553 173.5 553L176.332 550.379L226.64 500.071C226.64 500.071 230.062 497 227 493.5C223.938 490 219.569 493 219.569 493L169.832 542.736C132.437 497.05 110 438.645 110 375C110 308.199 134.717 247.172 175.504 200.563C175.504 200.563 178.5 196.5 175.504 193.477C172.507 190.454 168.417 193.477 168.417 193.477ZM199.499 176.44C246.241 135.095 307.69 110 375 110C442.471 110 504.053 135.216 550.836 176.737C550.836 176.737 554.5 178.5 557 175.5C559.5 172.5 557.92 169.654 557.92 169.654C509.317 126.328 445.233 100 375 100C304.928 100 240.978 126.208 192.415 169.356C192.415 169.356 188.831 172.88 192.415 176.44C196 180 199.499 176.44 199.499 176.44ZM375 640C521.355 640 640 521.355 640 375C640 310.66 617.071 251.676 578.938 205.773L529.071 255.64C529.071 255.64 526 259.279 522 255.64C518 252 522 248.569 522 248.569L572.387 198.182C572.387 198.182 576 194.5 578.938 194.5C581.876 194.5 583.43 195.924 585.341 198.182C625.841 246.027 650 307.341 650 375C650 526.878 526.878 650 375 650C304.149 650 239.556 623.206 190.801 579.199C190.801 579.199 188.5 576 191 573C193.5 570 197.882 572.118 197.882 572.118C244.819 614.32 306.911 640 375 640Z" fill="#FF008A"/>
</g>
<g filter="url(#filter4_f_2_136)">
<path fill-rule="evenodd" clip-rule="evenodd" d="M168.417 193.477C125.828 241.908 100 305.438 100 375C100 444.842 119.253 500.664 165.5 553C165.527 553.03 166.5 554 169.5 554C172.5 554 173.5 553 173.5 553L176.332 550.379L226.64 500.071C226.64 500.071 230.062 497 227 493.5C223.938 490 219.569 493 219.569 493L169.832 542.736C132.437 497.05 110 438.645 110 375C110 308.199 134.717 247.172 175.504 200.563C175.504 200.563 178.5 196.5 175.504 193.477C172.507 190.454 168.417 193.477 168.417 193.477ZM199.499 176.44C246.241 135.095 307.69 110 375 110C442.471 110 504.053 135.216 550.836 176.737C550.836 176.737 554.5 178.5 557 175.5C559.5 172.5 557.92 169.654 557.92 169.654C509.317 126.328 445.233 100 375 100C304.928 100 240.978 126.208 192.415 169.356C192.415 169.356 188.831 172.88 192.415 176.44C196 180 199.499 176.44 199.499 176.44ZM375 640C521.355 640 640 521.355 640 375C640 310.66 617.071 251.676 578.938 205.773L529.071 255.64C529.071 255.64 526 259.279 522 255.64C518 252 522 248.569 522 248.569L572.387 198.182C572.387 198.182 576 194.5 578.938 194.5C581.876 194.5 583.43 195.924 585.341 198.182C625.841 246.027 650 307.341 650 375C650 526.878 526.878 650 375 650C304.149 650 239.556 623.206 190.801 579.199C190.801 579.199 188.5 576 191 573C193.5 570 197.882 572.118 197.882 572.118C244.819 614.32 306.911 640 375 640Z" fill="#FF008A"/>
</g>
<g filter="url(#filter5_i_2_136)">
<path fill-rule="evenodd" clip-rule="evenodd" d="M168.417 193.477C125.828 241.908 100 305.438 100 375C100 444.842 119.253 500.664 165.5 553C165.527 553.03 166.5 554 169.5 554C172.5 554 173.5 553 173.5 553L176.332 550.379L226.64 500.071C226.64 500.071 230.062 497 227 493.5C223.938 490 219.569 493 219.569 493L169.832 542.736C132.437 497.05 110 438.645 110 375C110 308.199 134.717 247.172 175.504 200.563C175.504 200.563 178.5 196.5 175.504 193.477C172.507 190.454 168.417 193.477 168.417 193.477ZM199.499 176.44C246.241 135.095 307.69 110 375 110C442.471 110 504.053 135.216 550.836 176.737C550.836 176.737 554.5 178.5 557 175.5C559.5 172.5 557.92 169.654 557.92 169.654C509.317 126.328 445.233 100 375 100C304.928 100 240.978 126.208 192.415 169.356C192.415 169.356 188.831 172.88 192.415 176.44C196 180 199.499 176.44 199.499 176.44ZM375 640C521.355 640 640 521.355 640 375C640 310.66 617.071 251.676 578.938 205.773L529.071 255.64C529.071 255.64 526 259.279 522 255.64C518 252 522 248.569 522 248.569L572.387 198.182C572.387 198.182 576 194.5 578.938 194.5C581.876 194.5 583.43 195.924 585.341 198.182C625.841 246.027 650 307.341 650 375C650 526.878 526.878 650 375 650C304.149 650 239.556 623.206 190.801 579.199C190.801 579.199 188.5 576 191 573C193.5 570 197.882 572.118 197.882 572.118C244.819 614.32 306.911 640 375 640Z" fill="#F1F1F1"/>
</g>
<g filter="url(#filter6_f_2_136)">
<path fill-rule="evenodd" clip-rule="evenodd" d="M374.054 276L356.454 396.467L346.191 476.093C344.724 487.47 328.379 487.825 326.42 476.523L312.569 396.613L303.33 339.531L293.42 396.676L285.58 438.371C283.733 448.197 270.2 449.528 266.473 440.25L249.319 397.547L237.977 365.239L229.845 393.547C228.614 397.833 224.694 400.786 220.234 400.786H182V390.786H220.234L228.365 362.478C231.055 353.113 244.185 352.733 247.412 361.926L258.681 394.026L275.753 436.523L283.58 394.897L293.477 337.822C295.405 326.704 311.399 326.794 313.201 337.933L322.431 394.96L336.273 474.815L346.546 395.105L364.159 274.554C365.823 263.167 382.245 263.141 383.945 274.523L401.941 395.021L414.785 475.296L426.554 395.052L435.044 338.563C436.726 327.372 452.78 327.146 454.776 338.286L464.914 394.862L464.922 394.905L472.513 435.274L487.312 394.048L500.152 360.52C503.55 351.647 516.245 352.069 519.046 361.148L524.927 380.208C526.867 386.497 532.679 390.786 539.26 390.786H568V400.786H539.26C528.292 400.786 518.604 393.637 515.371 383.156L509.491 364.096L496.688 397.526L481.925 438.653C478.48 448.248 464.569 447.141 462.685 437.122L455.082 396.689L444.933 340.049L436.447 396.512L436.444 396.53L424.679 476.747C423.018 488.071 406.719 488.177 404.911 476.876L392.059 396.551L374.054 276Z" fill="#00D1FF"/>
</g>
<g filter="url(#filter7_f_2_136)">
<path fill-rule="evenodd" clip-rule="evenodd" d="M374.054 276L356.454 396.467L346.191 476.093C344.724 487.47 328.379 487.825 326.42 476.523L312.569 396.613L303.33 339.531L293.42 396.676L285.58 438.371C283.733 448.197 270.2 449.528 266.473 440.25L249.319 397.547L237.977 365.239L229.845 393.547C228.614 397.833 224.694 400.786 220.234 400.786H182V390.786H220.234L228.365 362.478C231.055 353.113 244.185 352.733 247.412 361.926L258.681 394.026L275.753 436.523L283.58 394.897L293.477 337.822C295.405 326.704 311.399 326.794 313.201 337.933L322.431 394.96L336.273 474.815L346.546 395.105L364.159 274.554C365.823 263.167 382.245 263.141 383.945 274.523L401.941 395.021L414.785 475.296L426.554 395.052L435.044 338.563C436.726 327.372 452.78 327.146 454.776 338.286L464.914 394.862L464.922 394.905L472.513 435.274L487.312 394.048L500.152 360.52C503.55 351.647 516.245 352.069 519.046 361.148L524.927 380.208C526.867 386.497 532.679 390.786 539.26 390.786H568V400.786H539.26C528.292 400.786 518.604 393.637 515.371 383.156L509.491 364.096L496.688 397.526L481.925 438.653C478.48 448.248 464.569 447.141 462.685 437.122L455.082 396.689L444.933 340.049L436.447 396.512L436.444 396.53L424.679 476.747C423.018 488.071 406.719 488.177 404.911 476.876L392.059 396.551L374.054 276Z" fill="#00D1FF"/>
</g>
<g filter="url(#filter8_i_2_136)">
<path fill-rule="evenodd" clip-rule="evenodd" d="M374.054 276L356.454 396.467L346.191 476.093C344.724 487.47 328.379 487.825 326.42 476.523L312.569 396.613L303.33 339.531L293.42 396.676L285.58 438.371C283.733 448.197 270.2 449.528 266.473 440.25L249.319 397.547L237.977 365.239L229.845 393.547C228.614 397.833 224.694 400.786 220.234 400.786H182V390.786H220.234L228.365 362.478C231.055 353.113 244.185 352.733 247.412 361.926L258.681 394.026L275.753 436.523L283.58 394.897L293.477 337.822C295.405 326.704 311.399 326.794 313.201 337.933L322.431 394.96L336.273 474.815L346.546 395.105L364.159 274.554C365.823 263.167 382.245 263.141 383.945 274.523L401.941 395.021L414.785 475.296L426.554 395.052L435.044 338.563C436.726 327.372 452.78 327.146 454.776 338.286L464.914 394.862L464.922 394.905L472.513 435.274L487.312 394.048L500.152 360.52C503.55 351.647 516.245 352.069 519.046 361.148L524.927 380.208C526.867 386.497 532.679 390.786 539.26 390.786H568V400.786H539.26C528.292 400.786 518.604 393.637 515.371 383.156L509.491 364.096L496.688 397.526L481.925 438.653C478.48 448.248 464.569 447.141 462.685 437.122L455.082 396.689L444.933 340.049L436.447 396.512L436.444 396.53L424.679 476.747C423.018 488.071 406.719 488.177 404.911 476.876L392.059 396.551L374.054 276Z" fill="#F1F1F1"/>
</g>
<defs>
<filter id="filter0_f_2_136" x="25.5534" y="25.5534" width="700" height="700" filterUnits="userSpaceOnUse" color-interpolation-filters="sRGB">
<feFlood flood-opacity="0" result="BackgroundImageFix"/>
<feBlend mode="normal" in="SourceGraphic" in2="BackgroundImageFix" result="shape"/>
<feGaussianBlur stdDeviation="50" result="effect1_foregroundBlur_2_136"/>
</filter>
<filter id="filter1_f_2_136" x="105.553" y="105.553" width="540" height="540" filterUnits="userSpaceOnUse" color-interpolation-filters="sRGB">
<feFlood flood-opacity="0" result="BackgroundImageFix"/>
<feBlend mode="normal" in="SourceGraphic" in2="BackgroundImageFix" result="shape"/>
<feGaussianBlur stdDeviation="10" result="effect1_foregroundBlur_2_136"/>
</filter>
<filter id="filter2_i_2_136" x="125.553" y="125.553" width="500" height="500" filterUnits="userSpaceOnUse" color-interpolation-filters="sRGB">
<feFlood flood-opacity="0" result="BackgroundImageFix"/>
<feBlend mode="normal" in="SourceGraphic" in2="BackgroundImageFix" result="shape"/>
<feColorMatrix in="SourceAlpha" type="matrix" values="0 0 0 0 0 0 0 0 0 0 0 0 0 0 0 0 0 0 127 0" result="hardAlpha"/>
<feOffset/>
<feGaussianBlur stdDeviation="15"/>
<feComposite in2="hardAlpha" operator="arithmetic" k2="-1" k3="1"/>
<feColorMatrix type="matrix" values="0 0 0 0 0 0 0 0 0 0.819608 0 0 0 0 1 0 0 0 1 0"/>
<feBlend mode="normal" in2="shape" result="effect1_innerShadow_2_136"/>
</filter>
<filter id="filter3_f_2_136" x="0" y="0" width="750" height="750" filterUnits="userSpaceOnUse" color-interpolation-filters="sRGB">
<feFlood flood-opacity="0" result="BackgroundImageFix"/>
<feBlend mode="normal" in="SourceGraphic" in2="BackgroundImageFix" result="shape"/>
<feGaussianBlur stdDeviation="50" result="effect1_foregroundBlur_2_136"/>
</filter>
<filter id="filter4_f_2_136" x="80" y="80" width="590" height="590" filterUnits="userSpaceOnUse" color-interpolation-filters="sRGB">
<feFlood flood-opacity="0" result="BackgroundImageFix"/>
<feBlend mode="normal" in="SourceGraphic" in2="BackgroundImageFix" result="shape"/>
<feGaussianBlur stdDeviation="10" result="effect1_foregroundBlur_2_136"/>
</filter>
<filter id="filter5_i_2_136" x="100" y="100" width="550" height="550" filterUnits="userSpaceOnUse" color-interpolation-filters="sRGB">
<feFlood flood-opacity="0" result="BackgroundImageFix"/>
<feBlend mode="normal" in="SourceGraphic" in2="BackgroundImageFix" result="shape"/>
<feColorMatrix in="SourceAlpha" type="matrix" values="0 0 0 0 0 0 0 0 0 0 0 0 0 0 0 0 0 0 127 0" result="hardAlpha"/>
<feOffset/>
<feGaussianBlur stdDeviation="15"/>
<feComposite in2="hardAlpha" operator="arithmetic" k2="-1" k3="1"/>
<feColorMatrix type="matrix" values="0 0 0 0 1 0 0 0 0 0 0 0 0 0 0.541176 0 0 0 1 0"/>
<feBlend mode="normal" in2="shape" result="effect1_innerShadow_2_136"/>
</filter>
<filter id="filter6_f_2_136" x="82" y="166" width="586" height="419.296" filterUnits="userSpaceOnUse" color-interpolation-filters="sRGB">
<feFlood flood-opacity="0" result="BackgroundImageFix"/>
<feBlend mode="normal" in="SourceGraphic" in2="BackgroundImageFix" result="shape"/>
<feGaussianBlur stdDeviation="50" result="effect1_foregroundBlur_2_136"/>
</filter>
<filter id="filter7_f_2_136" x="162" y="246" width="426" height="259.296" filterUnits="userSpaceOnUse" color-interpolation-filters="sRGB">
<feFlood flood-opacity="0" result="BackgroundImageFix"/>
<feBlend mode="normal" in="SourceGraphic" in2="BackgroundImageFix" result="shape"/>
<feGaussianBlur stdDeviation="10" result="effect1_foregroundBlur_2_136"/>
</filter>
<filter id="filter8_i_2_136" x="182" y="266" width="386" height="219.296" filterUnits="userSpaceOnUse" color-interpolation-filters="sRGB">
<feFlood flood-opacity="0" result="BackgroundImageFix"/>
<feBlend mode="normal" in="SourceGraphic" in2="BackgroundImageFix" result="shape"/>
<feColorMatrix in="SourceAlpha" type="matrix" values="0 0 0 0 0 0 0 0 0 0 0 0 0 0 0 0 0 0 127 0" result="hardAlpha"/>
<feOffset/>
<feGaussianBlur stdDeviation="15"/>
<feComposite in2="hardAlpha" operator="arithmetic" k2="-1" k3="1"/>
<feColorMatrix type="matrix" values="0 0 0 0 0 0 0 0 0 0.819608 0 0 0 0 1 0 0 0 1 0"/>
<feBlend mode="normal" in2="shape" result="effect1_innerShadow_2_136"/>
</filter>
</defs>
</svg>
